<?xml version="1.0" encoding="utf-8"?>
<!-- Generator: Adobe Illustrator 16.0.0, SVG Export Plug-In . SVG Version: 6.00 Build 0)  -->
<!DOCTYPE svg PUBLIC "-//W3C//DTD SVG 1.1//EN" "http://www.w3.org/Graphics/SVG/1.1/DTD/svg11.dtd">
<svg version="1.1" id="圖層_1" xmlns="http://www.w3.org/2000/svg" xmlns:xlink="http://www.w3.org/1999/xlink" x="0px" y="0px"
	 width="1530.012px" height="1000px" viewBox="-530.012 0 1530.012 1000" enable-background="new -530.012 0 1530.012 1000"
	 xml:space="preserve">
<g>
	<g>
		<linearGradient id="SVGID_1_" gradientUnits="userSpaceOnUse" x1="581.627" y1="378.8984" x2="1258.1289" y2="378.8984">
			<stop  offset="0" style="stop-color:#E90B15"/>
			<stop  offset="1" style="stop-color:#7500E9"/>
		</linearGradient>
		<path fill="none" stroke="url(#SVGID_1_)" stroke-width="0.25" stroke-miterlimit="10" d="M895.886,58.867
			c13.196-24.127,34.789-24.127,47.984,0l80.674,147.506c13.195,24.127,43.732,54.664,67.86,67.86l147.504,80.673
			c24.128,13.196,24.128,34.789,0,47.984l-147.504,80.672c-24.128,13.196-54.665,43.732-67.86,67.86L943.87,698.929
			c-13.195,24.128-34.788,24.128-47.984,0l-80.673-147.506c-13.195-24.128-43.732-54.665-67.86-67.86L599.848,402.89
			c-24.128-13.195-24.128-34.788,0-47.984l147.505-80.673c24.128-13.196,54.665-43.733,67.86-67.86L895.886,58.867z"/>
	</g>
	<g>
		<linearGradient id="SVGID_2_" gradientUnits="userSpaceOnUse" x1="578.1201" y1="383.2031" x2="1240.3633" y2="383.2031">
			<stop  offset="0" style="stop-color:#E90B15"/>
			<stop  offset="1" style="stop-color:#7500E9"/>
		</linearGradient>
		<path fill="none" stroke="url(#SVGID_2_)" stroke-width="0.25" stroke-miterlimit="10" d="M890.359,69.91
			c13.588-23.909,35.178-23.556,47.979,0.783l75.824,144.18c12.801,24.339,42.835,55.371,66.744,68.958l141.628,80.489
			c23.909,13.587,23.557,35.178-0.782,47.978l-144.18,75.825c-24.339,12.8-55.37,42.834-68.958,66.744l-80.489,141.63
			c-13.588,23.909-35.178,23.557-47.979-0.783l-75.824-144.181c-12.801-24.34-42.835-55.371-66.744-68.958l-141.629-80.488
			c-23.909-13.587-23.557-35.177,0.783-47.978l144.18-75.825c24.34-12.8,55.371-42.834,68.959-66.743L890.359,69.91z"/>
	</g>
	<g>
		<linearGradient id="SVGID_3_" gradientUnits="userSpaceOnUse" x1="574.6006" y1="387.5078" x2="1222.6113" y2="387.5078">
			<stop  offset="0" style="stop-color:#E90B15"/>
			<stop  offset="1" style="stop-color:#7500E9"/>
		</linearGradient>
		<path fill="none" stroke="url(#SVGID_3_)" stroke-width="0.25" stroke-miterlimit="10" d="M884.812,80.925
			c13.991-23.675,35.572-22.956,47.957,1.597l71.049,140.849c12.385,24.553,41.889,56.09,65.563,70.081l135.808,80.261
			c23.675,13.991,22.956,35.572-1.597,47.958l-140.848,71.047c-24.554,12.385-56.09,41.889-70.081,65.563L912.4,694.092
			c-13.991,23.675-35.572,22.956-47.957-1.598l-71.048-140.85c-12.385-24.553-41.889-56.089-65.563-70.081l-135.81-80.261
			c-23.675-13.992-22.956-35.572,1.598-47.958l140.849-71.047c24.554-12.385,56.09-41.889,70.081-65.563L884.812,80.925z"/>
	</g>
	<g>
		<linearGradient id="SVGID_4_" gradientUnits="userSpaceOnUse" x1="571.0674" y1="391.8125" x2="1204.873" y2="391.8125">
			<stop  offset="0" style="stop-color:#E90B15"/>
			<stop  offset="1" style="stop-color:#7500E9"/>
		</linearGradient>
		<path fill="none" stroke="url(#SVGID_4_)" stroke-width="0.25" stroke-miterlimit="10" d="M879.241,91.909
			c14.407-23.424,35.973-22.324,47.922,2.444l66.346,137.513c11.949,24.768,40.892,56.82,64.315,71.228l130.05,79.99
			c23.424,14.407,22.324,35.972-2.444,47.922l-137.512,66.345c-24.769,11.949-56.821,40.892-71.229,64.315l-79.99,130.051
			c-14.407,23.424-35.973,22.324-47.922-2.444L782.432,551.76c-11.949-24.769-40.892-56.821-64.315-71.229l-130.05-79.989
			c-23.424-14.408-22.324-35.972,2.444-47.922l137.512-66.345c24.769-11.95,56.821-40.892,71.229-64.315L879.241,91.909z"/>
	</g>
	<g>
		<linearGradient id="SVGID_5_" gradientUnits="userSpaceOnUse" x1="567.5166" y1="396.1182" x2="1187.1514" y2="396.1182">
			<stop  offset="0" style="stop-color:#E90B15"/>
			<stop  offset="1" style="stop-color:#7500E9"/>
		</linearGradient>
		<path fill="none" stroke="url(#SVGID_5_)" stroke-width="0.25" stroke-miterlimit="10" d="M873.648,102.861
			c14.836-23.155,36.377-21.659,47.869,3.324l61.722,134.176c11.492,24.983,39.841,57.563,62.996,72.398l124.355,79.674
			c23.155,14.835,21.659,36.376-3.324,47.869l-134.174,61.721c-24.983,11.492-57.563,39.841-72.398,62.996L881.02,689.375
			c-14.836,23.155-36.377,21.659-47.869-3.324L771.43,551.875c-11.492-24.983-39.841-57.563-62.996-72.398l-124.356-79.674
			c-23.155-14.835-21.659-36.376,3.324-47.869l134.175-61.721c24.983-11.493,57.563-39.841,72.398-62.996L873.648,102.861z"/>
	</g>
	<g>
		<linearGradient id="SVGID_6_" gradientUnits="userSpaceOnUse" x1="563.9482" y1="400.4233" x2="1169.4473" y2="400.4233">
			<stop  offset="0" style="stop-color:#E90B15"/>
			<stop  offset="1" style="stop-color:#7500E9"/>
		</linearGradient>
		<path fill="none" stroke="url(#SVGID_6_)" stroke-width="0.25" stroke-miterlimit="10" d="M868.035,113.777
			c15.275-22.867,36.783-20.959,47.796,4.239l57.181,130.839c11.013,25.199,38.732,58.314,61.6,73.59l118.732,79.314
			c22.867,15.276,20.959,36.784-4.239,47.797l-130.839,57.18c-25.198,11.013-58.313,38.732-73.589,61.599L865.36,687.069
			c-15.275,22.866-36.783,20.959-47.796-4.24l-57.18-130.839c-11.013-25.199-38.732-58.314-61.6-73.59l-118.732-79.314
			c-22.867-15.275-20.96-36.784,4.238-47.796l130.84-57.18c25.198-11.012,58.313-38.732,73.589-61.599L868.035,113.777z"/>
	</g>
	<g>
		<linearGradient id="SVGID_7_" gradientUnits="userSpaceOnUse" x1="560.3604" y1="404.7285" x2="1151.7627" y2="404.7285">
			<stop  offset="0" style="stop-color:#E90B15"/>
			<stop  offset="1" style="stop-color:#7500E9"/>
		</linearGradient>
		<path fill="none" stroke="url(#SVGID_7_)" stroke-width="0.25" stroke-miterlimit="10" d="M862.398,124.657
			c15.728-22.559,37.193-20.223,47.703,5.189l52.727,127.506c10.508,25.413,37.563,59.073,60.122,74.801l113.183,78.911
			c22.559,15.728,20.224,37.194-5.189,47.703l-127.505,52.726c-25.413,10.509-59.073,37.563-74.801,60.122L849.725,684.8
			c-15.728,22.559-37.193,20.224-47.702-5.189l-52.726-127.507c-10.509-25.413-37.563-59.073-60.122-74.801L575.99,398.391
			c-22.559-15.728-20.224-37.194,5.189-47.702l127.507-52.726c25.413-10.508,59.073-37.563,74.801-60.122L862.398,124.657z"/>
	</g>
	<g>
		<linearGradient id="SVGID_8_" gradientUnits="userSpaceOnUse" x1="556.751" y1="409.0332" x2="1134.1016" y2="409.0332">
			<stop  offset="0" style="stop-color:#E90B15"/>
			<stop  offset="1" style="stop-color:#7500E9"/>
		</linearGradient>
		<path fill="none" stroke="url(#SVGID_8_)" stroke-width="0.25" stroke-miterlimit="10" d="M856.741,135.496
			c16.191-22.228,37.604-19.448,47.585,6.177l48.362,124.18c9.98,25.625,36.332,59.839,58.56,76.031l107.715,78.465
			c22.228,16.191,19.448,37.605-6.177,47.585l-124.179,48.362c-25.625,9.98-59.839,36.332-76.03,58.56L834.11,682.571
			c-16.191,22.228-37.604,19.448-47.585-6.178l-48.361-124.18c-9.98-25.626-36.332-59.839-58.56-76.031l-107.716-78.465
			c-22.228-16.191-19.448-37.605,6.178-47.584l124.179-48.362c25.626-9.979,59.84-36.332,76.031-58.559L856.741,135.496z"/>
	</g>
	<g>
		<linearGradient id="SVGID_9_" gradientUnits="userSpaceOnUse" x1="553.1152" y1="413.3379" x2="1116.4648" y2="413.3379">
			<stop  offset="0" style="stop-color:#E90B15"/>
			<stop  offset="1" style="stop-color:#7500E9"/>
		</linearGradient>
		<path fill="none" stroke="url(#SVGID_9_)" stroke-width="0.25" stroke-miterlimit="10" d="M851.063,146.292
			c16.668-21.874,38.016-18.633,47.441,7.202l44.094,120.865c9.425,25.834,35.032,60.608,56.905,77.276l102.334,77.977
			c21.873,16.667,18.632,38.016-7.202,47.44l-120.864,44.093c-25.834,9.426-60.608,35.033-77.276,56.906l-77.977,102.334
			c-16.668,21.873-38.016,18.632-47.441-7.202l-44.094-120.865c-9.425-25.834-35.032-60.608-56.906-77.276l-102.332-77.976
			c-21.874-16.667-18.633-38.016,7.201-47.44l120.864-44.094c25.834-9.425,60.608-35.033,77.276-56.906L851.063,146.292z"/>
	</g>
	<g>
		<linearGradient id="SVGID_10_" gradientUnits="userSpaceOnUse" x1="549.4521" y1="417.6431" x2="1098.8555" y2="417.6431">
			<stop  offset="0" style="stop-color:#E90B15"/>
			<stop  offset="1" style="stop-color:#7500E9"/>
		</linearGradient>
		<path fill="none" stroke="url(#SVGID_10_)" stroke-width="0.25" stroke-miterlimit="10" d="M845.363,157.042
			c17.154-21.494,38.425-17.775,47.268,8.264l39.925,117.565c8.843,26.039,33.664,61.379,55.158,78.534l97.041,77.447
			c21.494,17.154,17.775,38.424-8.265,47.267l-117.563,39.923c-26.04,8.843-61.38,33.664-78.534,55.158l-77.448,97.043
			c-17.154,21.494-38.425,17.775-47.268-8.265l-39.924-117.564c-8.843-26.04-33.664-61.38-55.158-78.534l-97.042-77.448
			c-21.494-17.154-17.775-38.424,8.265-47.267l117.564-39.924c26.04-8.843,61.38-33.664,78.534-55.158L845.363,157.042z"/>
	</g>
	<g>
		<linearGradient id="SVGID_11_" gradientUnits="userSpaceOnUse" x1="545.7588" y1="421.9482" x2="1081.2764" y2="421.9482">
			<stop  offset="0" style="stop-color:#E90B15"/>
			<stop  offset="1" style="stop-color:#7500E9"/>
		</linearGradient>
		<path fill="none" stroke="url(#SVGID_11_)" stroke-width="0.25" stroke-miterlimit="10" d="M839.646,167.743
			c17.651-21.087,38.828-16.873,47.061,9.366l35.858,114.286c8.232,26.239,32.222,62.149,53.309,79.8l91.849,76.88
			c21.087,17.651,16.873,38.829-9.366,47.062l-114.284,35.857c-26.239,8.232-62.148,32.222-79.8,53.309l-76.883,91.851
			c-17.651,21.087-38.828,16.873-47.061-9.366l-35.858-114.286c-8.232-26.239-32.222-62.149-53.309-79.8l-91.85-76.881
			c-21.087-17.651-16.873-38.829,9.366-47.061l114.286-35.857c26.239-8.232,62.148-32.222,79.8-53.309L839.646,167.743z"/>
	</g>
	<g>
		<linearGradient id="SVGID_12_" gradientUnits="userSpaceOnUse" x1="542.0322" y1="426.2534" x2="1063.7305" y2="426.2534">
			<stop  offset="0" style="stop-color:#E90B15"/>
			<stop  offset="1" style="stop-color:#7500E9"/>
		</linearGradient>
		<path fill="none" stroke="url(#SVGID_12_)" stroke-width="0.25" stroke-miterlimit="10" d="M833.91,178.393
			c18.158-20.653,39.227-15.925,46.82,10.505l31.896,111.034c7.594,26.431,30.703,62.913,51.356,81.071l86.758,76.279
			c20.653,18.158,15.926,39.227-10.506,46.82l-111.031,31.896c-26.432,7.593-62.913,30.702-81.071,51.355l-76.279,86.76
			c-18.158,20.653-39.227,15.926-46.819-10.506l-31.897-111.033c-7.593-26.432-30.702-62.913-51.355-81.071l-86.76-76.279
			c-20.653-18.158-15.926-39.227,10.506-46.819l111.033-31.896c26.432-7.593,62.913-30.703,81.071-51.356L833.91,178.393z"/>
	</g>
	<g>
		<linearGradient id="SVGID_13_" gradientUnits="userSpaceOnUse" x1="538.2705" y1="430.5581" x2="1046.2207" y2="430.5581">
			<stop  offset="0" style="stop-color:#E90B15"/>
			<stop  offset="1" style="stop-color:#7500E9"/>
		</linearGradient>
		<path fill="none" stroke="url(#SVGID_13_)" stroke-width="0.25" stroke-miterlimit="10" d="M828.159,188.988
			c18.674-20.188,39.616-14.93,46.54,11.685l28.046,107.813c6.924,26.614,29.105,63.668,49.293,82.342l81.777,75.645
			c20.188,18.674,14.93,39.617-11.685,46.54L914.32,541.056c-26.614,6.924-63.668,29.105-82.342,49.293l-75.646,81.78
			c-18.674,20.188-39.616,14.93-46.54-11.685l-28.045-107.813c-6.924-26.614-29.105-63.668-49.293-82.342l-81.779-75.645
			c-20.188-18.674-14.93-39.617,11.685-46.54l107.813-28.046c26.614-6.923,63.668-29.104,82.342-49.292L828.159,188.988z"/>
	</g>
	<g>
		<linearGradient id="SVGID_14_" gradientUnits="userSpaceOnUse" x1="534.4668" y1="434.8633" x2="1028.7529" y2="434.8633">
			<stop  offset="0" style="stop-color:#E90B15"/>
			<stop  offset="1" style="stop-color:#7500E9"/>
		</linearGradient>
		<path fill="none" stroke="url(#SVGID_14_)" stroke-width="0.25" stroke-miterlimit="10" d="M822.394,199.525
			c19.197-19.691,39.995-13.885,46.218,12.901l24.307,104.631c6.223,26.787,27.425,64.41,47.116,83.606l76.914,74.984
			c19.691,19.197,13.886,39.994-12.901,46.217l-104.63,24.307c-26.787,6.223-64.409,27.424-83.606,47.115l-74.984,76.915
			c-19.197,19.691-39.995,13.886-46.218-12.901l-24.306-104.631c-6.223-26.787-27.425-64.41-47.116-83.606l-76.915-74.984
			c-19.691-19.197-13.886-39.995,12.901-46.217l104.631-24.306c26.787-6.223,64.409-27.425,83.606-47.116L822.394,199.525z"/>
	</g>
	<g>
		<linearGradient id="SVGID_15_" gradientUnits="userSpaceOnUse" x1="530.6191" y1="439.168" x2="1011.3281" y2="439.168">
			<stop  offset="0" style="stop-color:#E90B15"/>
			<stop  offset="1" style="stop-color:#7500E9"/>
		</linearGradient>
		<path fill="none" stroke="url(#SVGID_15_)" stroke-width="0.25" stroke-miterlimit="10" d="M816.618,210.001
			c19.726-19.161,40.357-12.791,45.849,14.155l20.682,101.497c5.491,26.946,25.66,65.133,44.821,84.858l72.171,74.301
			c19.161,19.726,12.791,40.357-14.155,45.849l-101.496,20.681c-26.946,5.491-65.133,25.66-84.858,44.821l-74.302,72.172
			c-19.726,19.161-40.357,12.791-45.849-14.155L658.8,552.683c-5.491-26.946-25.66-65.133-44.821-84.858l-72.172-74.301
			c-19.161-19.726-12.791-40.357,14.155-45.848l101.497-20.682c26.946-5.491,65.133-25.66,84.858-44.821L816.618,210.001z"/>
	</g>
	<g>
		<linearGradient id="SVGID_16_" gradientUnits="userSpaceOnUse" x1="526.7236" y1="443.4736" x2="993.9512" y2="443.4736">
			<stop  offset="0" style="stop-color:#E90B15"/>
			<stop  offset="1" style="stop-color:#7500E9"/>
		</linearGradient>
		<path fill="none" stroke="url(#SVGID_16_)" stroke-width="0.25" stroke-miterlimit="10" d="M810.834,220.414
			c20.26-18.595,40.703-11.645,45.431,15.446l17.173,98.417c4.728,27.091,23.81,65.832,42.404,86.092l67.555,73.6
			c18.596,20.26,11.646,40.703-15.445,45.431l-98.416,17.172c-27.091,4.728-65.832,23.81-86.092,42.405l-73.602,67.556
			c-20.26,18.596-40.703,11.646-45.431-15.445l-17.172-98.418c-4.728-27.091-23.81-65.832-42.405-86.091l-67.556-73.601
			c-18.596-20.259-11.646-40.703,15.445-45.43l98.418-17.172c27.091-4.727,65.832-23.809,86.092-42.404L810.834,220.414z"/>
	</g>
	<g>
		<linearGradient id="SVGID_17_" gradientUnits="userSpaceOnUse" x1="522.7773" y1="447.7783" x2="976.626" y2="447.7783">
			<stop  offset="0" style="stop-color:#E90B15"/>
			<stop  offset="1" style="stop-color:#7500E9"/>
		</linearGradient>
		<path fill="none" stroke="url(#SVGID_17_)" stroke-width="0.25" stroke-miterlimit="10" d="M805.045,230.761
			c20.796-17.994,41.027-10.448,44.959,16.77l13.779,95.402c3.932,27.217,21.871,66.501,39.865,87.297l63.07,72.892
			c17.994,20.796,10.448,41.027-16.77,44.958l-95.401,13.78c-27.218,3.931-66.501,21.87-87.297,39.864l-72.893,63.072
			c-20.796,17.994-41.027,10.448-44.958-16.77l-13.78-95.402c-3.931-27.218-21.87-66.501-39.864-87.297l-63.072-72.893
			c-17.994-20.796-10.447-41.027,16.771-44.958l95.402-13.78c27.218-3.931,66.501-21.87,87.297-39.864L805.045,230.761z"/>
	</g>
	<g>
		<linearGradient id="SVGID_18_" gradientUnits="userSpaceOnUse" x1="518.7744" y1="452.0835" x2="959.3564" y2="452.0835">
			<stop  offset="0" style="stop-color:#E90B15"/>
			<stop  offset="1" style="stop-color:#7500E9"/>
		</linearGradient>
		<path fill="none" stroke="url(#SVGID_18_)" stroke-width="0.25" stroke-miterlimit="10" d="M799.257,241.038
			c21.332-17.354,41.324-9.198,44.429,18.126l10.502,92.46c3.104,27.324,19.843,67.134,37.198,88.466l58.724,72.183
			c17.355,21.332,9.198,41.324-18.126,44.429l-92.458,10.502c-27.324,3.104-67.134,19.843-88.466,37.198l-72.185,58.726
			c-21.332,17.355-41.324,9.198-44.429-18.126l-10.502-92.46c-3.104-27.324-19.843-67.134-37.198-88.466l-58.725-72.183
			c-17.355-21.332-9.198-41.325,18.126-44.429l92.459-10.502c27.324-3.104,67.134-19.843,88.466-37.197L799.257,241.038z"/>
	</g>
	<g>
		<linearGradient id="SVGID_19_" gradientUnits="userSpaceOnUse" x1="514.7109" y1="456.3882" x2="942.1484" y2="456.3882">
			<stop  offset="0" style="stop-color:#E90B15"/>
			<stop  offset="1" style="stop-color:#7500E9"/>
		</linearGradient>
		<path fill="none" stroke="url(#SVGID_19_)" stroke-width="0.25" stroke-miterlimit="10" d="M793.471,251.247
			c21.866-16.677,41.594-7.897,43.839,19.511l7.339,89.601c2.245,27.408,17.727,67.724,34.404,89.589l54.519,71.482
			c16.678,21.866,7.897,41.594-19.511,43.839l-89.6,7.338c-27.408,2.245-67.724,17.727-89.59,34.404l-71.482,54.519
			c-21.866,16.678-41.594,7.897-43.839-19.511l-7.338-89.601c-2.245-27.408-17.727-67.723-34.404-89.589l-54.52-71.482
			c-16.678-21.866-7.897-41.593,19.511-43.838l89.601-7.339c27.408-2.245,67.724-17.727,89.59-34.404L793.471,251.247z"/>
	</g>
	<g>
		<linearGradient id="SVGID_20_" gradientUnits="userSpaceOnUse" x1="510.585" y1="460.6934" x2="925.0029" y2="460.6934">
			<stop  offset="0" style="stop-color:#E90B15"/>
			<stop  offset="1" style="stop-color:#7500E9"/>
		</linearGradient>
		<path fill="none" stroke="url(#SVGID_20_)" stroke-width="0.25" stroke-miterlimit="10" d="M787.696,261.383
			c22.395-15.96,41.827-6.545,43.183,20.921l4.287,86.834c1.355,27.466,15.522,68.262,31.482,90.657l50.456,70.8
			c15.96,22.395,6.545,41.827-20.922,43.183l-86.833,4.286c-27.467,1.355-68.263,15.522-90.657,31.482l-70.801,50.457
			c-22.395,15.96-41.827,6.545-43.183-20.922l-4.286-86.833c-1.355-27.467-15.522-68.263-31.482-90.657l-50.457-70.801
			c-15.96-22.395-6.546-41.828,20.921-43.183l86.834-4.286c27.467-1.355,68.263-15.523,90.657-31.483L787.696,261.383z"/>
	</g>
	<g>
		<linearGradient id="SVGID_21_" gradientUnits="userSpaceOnUse" x1="506.3896" y1="464.998" x2="907.9258" y2="464.998">
			<stop  offset="0" style="stop-color:#E90B15"/>
			<stop  offset="1" style="stop-color:#7500E9"/>
		</linearGradient>
		<path fill="none" stroke="url(#SVGID_21_)" stroke-width="0.25" stroke-miterlimit="10" d="M781.936,271.446
			c22.915-15.203,42.022-5.145,42.46,22.352l1.339,84.171c0.438,27.497,13.234,68.743,28.438,91.658l46.537,70.147
			c15.203,22.916,5.145,42.022-22.352,42.46l-84.17,1.34c-27.497,0.438-68.743,13.233-91.659,28.437l-70.147,46.538
			c-22.916,15.203-42.022,5.145-42.46-22.353l-1.34-84.17c-0.438-27.497-13.233-68.743-28.437-91.659l-46.539-70.148
			c-15.202-22.916-5.144-42.022,22.353-42.46l84.171-1.338c27.497-0.438,68.743-13.234,91.658-28.437L781.936,271.446z"/>
	</g>
	<g>
		<linearGradient id="SVGID_22_" gradientUnits="userSpaceOnUse" x1="502.1221" y1="469.3032" x2="890.9209" y2="469.3032">
			<stop  offset="0" style="stop-color:#E90B15"/>
			<stop  offset="1" style="stop-color:#7500E9"/>
		</linearGradient>
		<path fill="none" stroke="url(#SVGID_22_)" stroke-width="0.25" stroke-miterlimit="10" d="M776.196,281.438
			c23.424-14.406,42.174-3.697,41.666,23.798l-1.509,81.622c-0.508,27.495,10.863,69.157,25.269,92.582l42.765,69.537
			c14.406,23.425,3.696,42.175-23.799,41.667l-81.62-1.509c-27.495-0.508-69.157,10.863-92.582,25.269l-69.537,42.766
			c-23.425,14.405-42.175,3.696-41.667-23.799l1.509-81.622c0.508-27.495-10.863-69.157-25.269-92.582l-42.766-69.538
			c-14.406-23.425-3.696-42.174,23.799-41.666l81.622,1.509c27.495,0.508,69.157-10.862,92.581-25.269L776.196,281.438z"/>
	</g>
	<g>
		<linearGradient id="SVGID_23_" gradientUnits="userSpaceOnUse" x1="497.7793" y1="473.6084" x2="873.9912" y2="473.6084">
			<stop  offset="0" style="stop-color:#E90B15"/>
			<stop  offset="1" style="stop-color:#7500E9"/>
		</linearGradient>
		<path fill="none" stroke="url(#SVGID_23_)" stroke-width="0.25" stroke-miterlimit="10" d="M770.483,291.358
			c23.919-13.57,42.279-2.205,40.801,25.255l-4.266,79.195c-1.479,27.46,8.414,69.498,21.983,93.417l39.134,68.98
			c13.569,23.919,2.204,42.279-25.256,40.801l-79.193-4.266c-27.46-1.479-69.498,8.414-93.417,21.983l-68.98,39.136
			c-23.919,13.569-42.279,2.204-40.801-25.256l4.266-79.195c1.479-27.46-8.414-69.498-21.983-93.417l-39.136-68.981
			c-13.569-23.919-2.204-42.279,25.256-40.8l79.194,4.266c27.46,1.479,69.498-8.414,93.417-21.983L770.483,291.358z"/>
	</g>
	<g>
		<linearGradient id="SVGID_24_" gradientUnits="userSpaceOnUse" x1="493.3574" y1="477.9131" x2="857.1416" y2="477.9131">
			<stop  offset="0" style="stop-color:#E90B15"/>
			<stop  offset="1" style="stop-color:#7500E9"/>
		</linearGradient>
		<path fill="none" stroke="url(#SVGID_24_)" stroke-width="0.25" stroke-miterlimit="10" d="M764.805,301.208
			c24.395-12.695,42.331-0.673,39.859,26.715l-6.94,76.901c-2.472,27.389,5.893,69.757,18.588,94.151l35.644,68.492
			c12.695,24.395,0.673,42.331-26.716,39.859l-76.899-6.94c-27.389-2.472-69.757,5.893-94.151,18.588l-68.494,35.644
			c-24.395,12.695-42.331,0.673-39.859-26.716l6.941-76.899c2.472-27.389-5.893-69.757-18.588-94.151l-35.645-68.494
			c-12.695-24.395-0.673-42.331,26.716-39.859l76.9,6.941c27.389,2.472,69.757-5.892,94.151-18.587L764.805,301.208z"/>
	</g>
	<g>
		<linearGradient id="SVGID_25_" gradientUnits="userSpaceOnUse" x1="488.855" y1="482.2183" x2="840.373" y2="482.2183">
			<stop  offset="0" style="stop-color:#E90B15"/>
			<stop  offset="1" style="stop-color:#7500E9"/>
		</linearGradient>
		<path fill="none" stroke="url(#SVGID_25_)" stroke-width="0.25" stroke-miterlimit="10" d="M759.167,310.99
			c24.848-11.783,42.327,0.895,38.843,28.173l-9.546,74.748c-3.484,27.278,3.306,69.927,15.089,94.775l32.289,68.086
			c11.783,24.848-0.895,42.327-28.173,38.843l-74.747-9.546c-27.278-3.484-69.927,3.306-94.774,15.089l-68.087,32.289
			c-24.848,11.783-42.327-0.895-38.843-28.173l9.547-74.748c3.484-27.278-3.306-69.926-15.09-94.774l-32.289-68.087
			c-11.784-24.848,0.894-42.327,28.172-38.843l74.748,9.547c27.278,3.484,69.927-3.307,94.774-15.09L759.167,310.99z"/>
	</g>
	<g>
		<linearGradient id="SVGID_26_" gradientUnits="userSpaceOnUse" x1="484.2681" y1="486.5234" x2="823.6865" y2="486.5234">
			<stop  offset="0" style="stop-color:#E90B15"/>
			<stop  offset="1" style="stop-color:#7500E9"/>
		</linearGradient>
		<path fill="none" stroke="url(#SVGID_26_)" stroke-width="0.25" stroke-miterlimit="10" d="M753.576,320.71
			c25.274-10.837,42.263,2.492,37.752,29.619l-12.097,72.742c-4.511,27.127,0.664,70.002,11.501,95.277l29.059,67.773
			c10.837,25.274-2.492,42.263-29.619,37.752l-72.742-12.098c-27.127-4.511-70.002,0.664-95.276,11.501l-67.774,29.06
			c-25.274,10.837-42.263-2.492-37.751-29.619l12.097-72.743c4.512-27.127-0.664-70.001-11.501-95.276l-29.06-67.774
			c-10.837-25.275,2.492-42.263,29.619-37.751l72.743,12.098c27.127,4.511,70.002-0.664,95.276-11.501L753.576,320.71z"/>
	</g>
	<g>
		<linearGradient id="SVGID_27_" gradientUnits="userSpaceOnUse" x1="479.5967" y1="490.8281" x2="807.0859" y2="490.8281">
			<stop  offset="0" style="stop-color:#E90B15"/>
			<stop  offset="1" style="stop-color:#7500E9"/>
		</linearGradient>
		<path fill="none" stroke="url(#SVGID_27_)" stroke-width="0.25" stroke-miterlimit="10" d="M748.04,330.371
			c25.672-9.858,42.136,4.113,36.586,31.047l-14.606,70.892c-5.55,26.934-2.025,69.976,7.833,95.648l25.946,67.569
			c9.858,25.672-4.113,42.136-31.047,36.586l-70.891-14.607c-26.934-5.55-69.976-2.025-95.647,7.833l-67.57,25.948
			c-25.672,9.858-42.136-4.113-36.586-31.047l14.607-70.892c5.55-26.935,2.024-69.976-7.833-95.648l-25.948-67.57
			c-9.858-25.672,4.113-42.136,31.047-36.586l70.891,14.607c26.935,5.55,69.977,2.025,95.648-7.833L748.04,330.371z"/>
	</g>
	<g>
		<linearGradient id="SVGID_28_" gradientUnits="userSpaceOnUse" x1="474.8394" y1="495.1338" x2="790.5723" y2="495.1338">
			<stop  offset="0" style="stop-color:#E90B15"/>
			<stop  offset="1" style="stop-color:#7500E9"/>
		</linearGradient>
		<path fill="none" stroke="url(#SVGID_28_)" stroke-width="0.25" stroke-miterlimit="10" d="M742.563,339.979
			c26.037-8.851,41.944,5.751,35.35,32.449l-17.094,69.198c-6.595,26.698-4.749,69.844,4.102,95.88l22.94,67.484
			c8.851,26.037-5.752,41.944-32.449,35.349l-69.196-17.093c-26.697-6.596-69.844-4.75-95.881,4.101l-67.485,22.941
			c-26.037,8.851-41.944-5.752-35.349-32.449l17.093-69.197c6.596-26.697,4.75-69.844-4.101-95.881l-22.94-67.485
			c-8.851-26.037,5.751-41.944,32.449-35.349l69.197,17.094c26.697,6.595,69.844,4.75,95.881-4.101L742.563,339.979z"/>
	</g>
	<g>
		<linearGradient id="SVGID_29_" gradientUnits="userSpaceOnUse" x1="469.9961" y1="499.4385" x2="774.1426" y2="499.4385">
			<stop  offset="0" style="stop-color:#E90B15"/>
			<stop  offset="1" style="stop-color:#7500E9"/>
		</linearGradient>
		<path fill="none" stroke="url(#SVGID_29_)" stroke-width="0.25" stroke-miterlimit="10" d="M737.152,349.542
			c26.365-7.818,41.685,7.399,34.043,33.816l-19.574,67.664c-7.642,26.417-7.497,69.602,0.321,95.967l20.023,67.531
			c7.818,26.365-7.399,41.685-33.815,34.042l-67.664-19.572c-26.416-7.643-69.602-7.498-95.967,0.32l-67.532,20.024
			c-26.365,7.818-41.684-7.399-34.042-33.816l19.573-67.663c7.642-26.417,7.498-69.603-0.32-95.968l-20.025-67.531
			c-7.818-26.365,7.399-41.685,33.816-34.043l67.664,19.574c26.416,7.642,69.602,7.498,95.967-0.32L737.152,349.542z"/>
	</g>
	<g>
		<linearGradient id="SVGID_30_" gradientUnits="userSpaceOnUse" x1="455.7612" y1="503.7422" x2="767.1064" y2="503.7422">
			<stop  offset="0" style="stop-color:#E90B15"/>
			<stop  offset="1" style="stop-color:#7500E9"/>
		</linearGradient>
		<path fill="none" stroke="url(#SVGID_30_)" stroke-width="0.25" stroke-miterlimit="10" d="M731.811,359.066
			c26.655-6.764,41.358,9.05,32.673,35.142l-22.064,66.29c-8.686,26.092-10.257,69.25-3.492,95.905l17.184,67.718
			c6.765,26.655-9.05,41.357-35.142,32.673l-66.289-22.065c-26.092-8.685-69.249-10.257-95.904-3.492l-67.719,17.185
			c-26.655,6.765-41.358-9.05-32.672-35.142l22.065-66.289c8.686-26.093,10.257-69.25,3.493-95.905l-17.186-67.719
			c-6.764-26.655,9.049-41.358,35.142-32.672l66.29,22.065c26.092,8.686,69.249,10.257,95.904,3.493L731.811,359.066z"/>
	</g>
	<g>
		<linearGradient id="SVGID_31_" gradientUnits="userSpaceOnUse" x1="440.6021" y1="508.0488" x2="760.9932" y2="508.0488">
			<stop  offset="0" style="stop-color:#E90B15"/>
			<stop  offset="1" style="stop-color:#7500E9"/>
		</linearGradient>
		<path fill="none" stroke="url(#SVGID_31_)" stroke-width="0.25" stroke-miterlimit="10" d="M726.545,368.561
			c26.903-5.694,40.963,10.694,31.243,36.419L733.2,470.053c-9.72,25.725-13.014,68.785-7.319,95.688l14.403,68.055
			c5.694,26.903-10.694,40.963-36.419,31.242l-65.07-24.587c-25.725-9.721-68.785-13.015-95.688-7.32l-68.056,14.404
			c-26.904,5.694-40.963-10.694-31.243-36.419l24.588-65.071c9.72-25.725,13.014-68.785,7.32-95.689l-14.405-68.055
			c-5.694-26.904,10.694-40.963,36.419-31.243l65.072,24.588c25.725,9.72,68.785,13.014,95.688,7.32L726.545,368.561z"/>
	</g>
	<g>
		<linearGradient id="SVGID_32_" gradientUnits="userSpaceOnUse" x1="425.3721" y1="512.3535" x2="754.9521" y2="512.3535">
			<stop  offset="0" style="stop-color:#E90B15"/>
			<stop  offset="1" style="stop-color:#7500E9"/>
		</linearGradient>
		<path fill="none" stroke="url(#SVGID_32_)" stroke-width="0.25" stroke-miterlimit="10" d="M721.356,378.036
			c27.11-4.613,40.502,12.324,29.761,37.64l-27.16,64.007c-10.741,25.315-15.756,68.208-11.143,95.319l11.664,68.546
			c4.613,27.11-12.325,40.502-37.64,29.761l-64.007-27.16c-25.314-10.741-68.209-15.756-95.318-11.143l-68.546,11.665
			c-27.11,4.613-40.503-12.325-29.761-37.64l27.159-64.008c10.742-25.314,15.756-68.208,11.143-95.319l-11.665-68.545
			c-4.614-27.11,12.324-40.503,37.64-29.761l64.008,27.16c25.314,10.742,68.208,15.756,95.318,11.143L721.356,378.036z"/>
	</g>
	<g>
		<linearGradient id="SVGID_33_" gradientUnits="userSpaceOnUse" x1="410.0684" y1="516.6582" x2="748.9834" y2="516.6582">
			<stop  offset="0" style="stop-color:#E90B15"/>
			<stop  offset="1" style="stop-color:#7500E9"/>
		</linearGradient>
		<path fill="none" stroke="url(#SVGID_33_)" stroke-width="0.25" stroke-miterlimit="10" d="M716.246,387.5
			c27.272-3.526,39.978,13.933,28.232,38.799l-29.797,63.088c-11.745,24.866-18.47,67.525-14.943,94.797l8.946,69.195
			c3.526,27.272-13.934,39.978-38.8,28.232l-63.086-29.798c-24.866-11.745-67.525-18.47-94.798-14.943l-69.195,8.947
			c-27.273,3.526-39.978-13.934-28.233-38.8l29.798-63.087c11.745-24.865,18.469-67.525,14.943-94.798l-8.947-69.195
			c-3.526-27.273,13.933-39.978,38.799-28.233l63.087,29.798c24.866,11.745,67.525,18.469,94.798,14.943L716.246,387.5z"/>
	</g>
	<g>
		<linearGradient id="SVGID_34_" gradientUnits="userSpaceOnUse" x1="394.688" y1="520.9629" x2="743.0918" y2="520.9629">
			<stop  offset="0" style="stop-color:#E90B15"/>
			<stop  offset="1" style="stop-color:#7500E9"/>
		</linearGradient>
		<path fill="none" stroke="url(#SVGID_34_)" stroke-width="0.25" stroke-miterlimit="10" d="M711.217,396.962
			c27.392-2.438,39.392,15.513,26.667,39.892l-32.521,62.305c-12.725,24.379-21.141,66.736-18.702,94.128l6.23,70.004
			c2.438,27.392-15.513,39.392-39.892,26.666l-62.303-32.52c-24.379-12.726-66.736-21.142-94.128-18.703l-70.004,6.231
			c-27.392,2.438-39.392-15.513-26.667-39.892l32.521-62.305c12.725-24.378,21.141-66.736,18.703-94.128l-6.232-70.004
			c-2.438-27.392,15.513-39.392,39.892-26.667l62.304,32.521c24.379,12.725,66.736,21.141,94.128,18.703L711.217,396.962z"/>
	</g>
	<g>
		<linearGradient id="SVGID_35_" gradientUnits="userSpaceOnUse" x1="379.2295" y1="525.2686" x2="737.2783" y2="525.2686">
			<stop  offset="0" style="stop-color:#E90B15"/>
			<stop  offset="1" style="stop-color:#7500E9"/>
		</linearGradient>
		<path fill="none" stroke="url(#SVGID_35_)" stroke-width="0.25" stroke-miterlimit="10" d="M706.266,406.432
			c27.467-1.355,38.749,17.056,25.071,40.914l-35.343,61.646c-13.678,23.857-23.76,65.85-22.405,93.316l3.501,70.972
			c1.354,27.467-17.057,38.749-40.914,25.071l-61.646-35.343c-23.857-13.678-65.85-23.76-93.316-22.405l-70.972,3.501
			c-27.467,1.354-38.749-17.057-25.071-40.914l35.342-61.646c13.678-23.857,23.76-65.85,22.405-93.316l-3.501-70.973
			c-1.355-27.467,17.056-38.749,40.914-25.071l61.647,35.343c23.857,13.678,65.85,23.76,93.316,22.405L706.266,406.432z"/>
	</g>
	<g>
		<linearGradient id="SVGID_36_" gradientUnits="userSpaceOnUse" x1="363.6914" y1="529.5732" x2="731.5439" y2="529.5732">
			<stop  offset="0" style="stop-color:#E90B15"/>
			<stop  offset="1" style="stop-color:#7500E9"/>
		</linearGradient>
		<path fill="none" stroke="url(#SVGID_36_)" stroke-width="0.25" stroke-miterlimit="10" d="M701.395,415.919
			c27.498-0.281,38.053,18.557,23.453,41.862l-38.277,61.103c-14.6,23.305-26.314,64.871-26.034,92.369l0.735,72.097
			c0.28,27.498-18.558,38.052-41.862,23.453l-61.101-38.277c-23.305-14.599-64.871-26.314-92.37-26.034l-72.098,0.736
			c-27.499,0.28-38.053-18.558-23.453-41.862l38.277-61.101c14.6-23.305,26.315-64.872,26.034-92.37l-0.736-72.098
			c-0.281-27.499,18.557-38.053,41.862-23.453l61.103,38.278c23.305,14.6,64.871,26.315,92.369,26.034L701.395,415.919z"/>
	</g>
	<g>
		<linearGradient id="SVGID_37_" gradientUnits="userSpaceOnUse" x1="348.0747" y1="533.8789" x2="725.8877" y2="533.8789">
			<stop  offset="0" style="stop-color:#E90B15"/>
			<stop  offset="1" style="stop-color:#7500E9"/>
		</linearGradient>
		<path fill="none" stroke="url(#SVGID_37_)" stroke-width="0.25" stroke-miterlimit="10" d="M696.598,425.432
			c27.488,0.779,37.309,20.01,21.822,42.735l-41.337,60.657c-15.486,22.725-28.795,63.809-29.575,91.297l-2.08,73.374
			c-0.78,27.488-20.011,37.309-42.735,21.821l-60.655-41.336c-22.725-15.487-63.809-28.796-91.297-29.575l-73.374-2.081
			c-27.489-0.779-37.309-20.01-21.822-42.734l41.337-60.656c15.487-22.725,28.795-63.809,29.575-91.298l2.08-73.374
			c0.779-27.489,20.01-37.309,42.735-21.822l60.658,41.337c22.725,15.487,63.809,28.795,91.297,29.575L696.598,425.432z"/>
	</g>
	<g>
		<linearGradient id="SVGID_38_" gradientUnits="userSpaceOnUse" x1="332.3804" y1="538.1836" x2="720.3105" y2="538.1836">
			<stop  offset="0" style="stop-color:#E90B15"/>
			<stop  offset="1" style="stop-color:#7500E9"/>
		</linearGradient>
		<path fill="none" stroke="url(#SVGID_38_)" stroke-width="0.25" stroke-miterlimit="10" d="M691.873,434.979
			c27.44,1.821,36.523,21.41,20.187,43.531l-44.53,60.297c-16.337,22.121-31.194,62.671-33.016,90.111l-4.963,74.793
			c-1.821,27.44-21.411,36.523-43.532,20.187l-60.296-44.53c-22.121-16.337-62.671-31.194-90.11-33.016l-74.794-4.963
			c-27.439-1.821-36.523-21.411-20.186-43.532l44.531-60.296c16.337-22.121,31.194-62.671,33.015-90.111l4.964-74.794
			c1.821-27.439,21.41-36.523,43.531-20.186L526.969,397c22.121,16.337,62.671,31.194,90.111,33.015L691.873,434.979z"/>
	</g>
	<g>
		<linearGradient id="SVGID_39_" gradientUnits="userSpaceOnUse" x1="316.6099" y1="542.4883" x2="714.8105" y2="542.4883">
			<stop  offset="0" style="stop-color:#E90B15"/>
			<stop  offset="1" style="stop-color:#7500E9"/>
		</linearGradient>
		<path fill="none" stroke="url(#SVGID_39_)" stroke-width="0.25" stroke-miterlimit="10" d="M687.218,444.565
			c27.353,2.84,35.702,22.753,18.554,44.252l-47.867,60.009c-17.148,21.498-33.503,61.468-36.344,88.82l-7.928,76.35
			c-2.841,27.353-22.755,35.702-44.253,18.553l-60.007-47.865c-21.499-17.149-61.468-33.504-88.82-36.344l-76.351-7.929
			c-27.353-2.84-35.702-22.754-18.553-44.252l47.867-60.008c17.148-21.498,33.503-61.468,36.343-88.82l7.928-76.351
			c2.84-27.353,22.753-35.702,44.252-18.553l60.008,47.867c21.498,17.148,61.468,33.503,88.82,36.343L687.218,444.565z"/>
	</g>
	<g>
		<linearGradient id="SVGID_40_" gradientUnits="userSpaceOnUse" x1="300.7646" y1="546.793" x2="709.3828" y2="546.793">
			<stop  offset="0" style="stop-color:#E90B15"/>
			<stop  offset="1" style="stop-color:#7500E9"/>
		</linearGradient>
		<path fill="none" stroke="url(#SVGID_40_)" stroke-width="0.25" stroke-miterlimit="10" d="M682.624,454.199
			c27.231,3.834,34.851,24.038,16.931,44.898l-51.349,59.775c-17.92,20.86-35.718,60.208-39.552,87.439l-10.987,78.032
			c-3.834,27.231-24.038,34.851-44.897,16.931l-59.774-51.349c-20.86-17.92-60.208-35.718-87.439-39.552l-78.033-10.987
			c-27.231-3.834-34.85-24.038-16.931-44.897l51.349-59.774c17.919-20.86,35.718-60.208,39.552-87.439l10.986-78.034
			c3.834-27.231,24.038-34.85,44.898-16.931l59.776,51.351c20.859,17.919,60.207,35.718,87.438,39.552L682.624,454.199z"/>
	</g>
	<g>
		<linearGradient id="SVGID_41_" gradientUnits="userSpaceOnUse" x1="284.8481" y1="551.0977" x2="704.0273" y2="551.0977">
			<stop  offset="0" style="stop-color:#E90B15"/>
			<stop  offset="1" style="stop-color:#7500E9"/>
		</linearGradient>
		<path fill="none" stroke="url(#SVGID_41_)" stroke-width="0.25" stroke-miterlimit="10" d="M678.09,463.885
			c27.078,4.799,33.974,25.261,15.324,45.471l-54.981,59.584c-18.649,20.21-37.835,58.9-42.634,85.979L581.65,734.75
			c-4.799,27.078-25.261,33.974-45.472,15.324l-59.582-54.98c-20.21-18.649-58.9-37.835-85.979-42.634l-79.832-14.148
			c-27.078-4.799-33.974-25.261-15.325-45.471l54.982-59.584c18.649-20.21,37.834-58.9,42.633-85.978l14.147-79.833
			c4.799-27.078,25.261-33.974,45.471-15.325l59.584,54.983c20.211,18.649,58.9,37.834,85.979,42.633L678.09,463.885z"/>
	</g>
	<g>
		<linearGradient id="SVGID_42_" gradientUnits="userSpaceOnUse" x1="268.8638" y1="555.4023" x2="698.7393" y2="555.4023">
			<stop  offset="0" style="stop-color:#E90B15"/>
			<stop  offset="1" style="stop-color:#7500E9"/>
		</linearGradient>
		<path fill="none" stroke="url(#SVGID_42_)" stroke-width="0.25" stroke-miterlimit="10" d="M673.606,473.627
			c26.896,5.733,33.08,26.421,13.742,45.974l-58.766,59.421c-19.338,19.553-39.85,57.557-45.583,84.452l-17.423,81.734
			c-5.733,26.896-26.422,33.08-45.975,13.742l-59.418-58.765c-19.553-19.338-57.556-39.85-84.452-45.583l-81.736-17.423
			c-26.896-5.733-33.08-26.422-13.742-45.975l58.766-59.419c19.337-19.553,39.85-57.557,45.583-84.452l17.422-81.736
			c5.733-26.896,26.421-33.08,45.974-13.742l59.421,58.767c19.553,19.337,57.557,39.85,84.452,45.583L673.606,473.627z"/>
	</g>
	<g>
		<linearGradient id="SVGID_43_" gradientUnits="userSpaceOnUse" x1="252.8154" y1="559.709" x2="693.5166" y2="559.709">
			<stop  offset="0" style="stop-color:#E90B15"/>
			<stop  offset="1" style="stop-color:#7500E9"/>
		</linearGradient>
		<path fill="none" stroke="url(#SVGID_43_)" stroke-width="0.25" stroke-miterlimit="10" d="M669.171,483.428
			c26.688,6.634,32.173,27.519,12.188,46.411l-62.7,59.271c-19.984,18.891-41.763,56.183-48.397,82.871l-20.816,83.732
			c-6.635,26.688-27.519,32.173-46.41,12.188l-59.271-62.7c-18.891-19.984-56.183-41.764-82.871-48.397l-83.733-20.816
			c-26.688-6.634-32.172-27.519-12.188-46.41l62.701-59.271c19.984-18.892,41.763-56.184,48.397-82.871l20.815-83.734
			c6.634-26.688,27.519-32.172,46.41-12.188l59.272,62.702c18.892,19.984,56.183,41.763,82.871,48.397L669.171,483.428z"/>
	</g>
	<g>
		<linearGradient id="SVGID_44_" gradientUnits="userSpaceOnUse" x1="236.707" y1="564.0137" x2="688.3525" y2="564.0137">
			<stop  offset="0" style="stop-color:#E90B15"/>
			<stop  offset="1" style="stop-color:#7500E9"/>
		</linearGradient>
		<path fill="none" stroke="url(#SVGID_44_)" stroke-width="0.25" stroke-miterlimit="10" d="M664.776,493.291
			c26.457,7.502,31.257,28.555,10.667,46.783l-66.783,59.127c-20.59,18.229-43.574,54.79-51.076,81.247l-24.333,85.813
			c-7.502,26.457-28.555,31.257-46.783,10.667l-59.125-66.784c-18.229-20.59-54.79-43.574-81.247-51.076l-85.813-24.332
			c-26.457-7.502-31.257-28.555-10.667-46.783l66.784-59.125c20.59-18.229,43.574-54.791,51.076-81.248l24.332-85.814
			c7.501-26.457,28.554-31.257,46.783-10.667l59.126,66.785c18.229,20.59,54.79,43.574,81.247,51.076L664.776,493.291z"/>
	</g>
	<g>
		<linearGradient id="SVGID_45_" gradientUnits="userSpaceOnUse" x1="220.542" y1="568.3184" x2="683.2451" y2="568.3184">
			<stop  offset="0" style="stop-color:#E90B15"/>
			<stop  offset="1" style="stop-color:#7500E9"/>
		</linearGradient>
		<path fill="none" stroke="url(#SVGID_45_)" stroke-width="0.25" stroke-miterlimit="10" d="M660.418,503.218
			c26.207,8.334,30.339,29.528,9.183,47.097l-71.012,58.973c-21.156,17.568-45.285,53.385-53.62,79.592l-27.975,87.964
			c-8.335,26.207-29.529,30.339-47.098,9.183l-58.971-71.012c-17.569-21.156-53.385-45.285-79.592-53.619l-87.965-27.977
			c-26.207-8.334-30.339-29.527-9.183-47.097l71.012-58.971c21.156-17.569,45.285-53.385,53.619-79.592l27.975-87.965
			c8.334-26.207,29.528-30.339,47.097-9.183l58.973,71.013c17.568,21.156,53.385,45.285,79.592,53.619L660.418,503.218z"/>
	</g>
	<g>
		<linearGradient id="SVGID_46_" gradientUnits="userSpaceOnUse" x1="204.3257" y1="572.623" x2="678.1904" y2="572.623">
			<stop  offset="0" style="stop-color:#E90B15"/>
			<stop  offset="1" style="stop-color:#7500E9"/>
		</linearGradient>
		<path fill="none" stroke="url(#SVGID_46_)" stroke-width="0.25" stroke-miterlimit="10" d="M656.09,513.208
			c25.939,9.132,29.422,30.442,7.739,47.356l-75.382,58.8c-21.683,16.914-46.896,51.977-56.027,77.916l-31.747,90.175
			c-9.132,25.939-30.442,29.422-47.356,7.738l-58.799-75.38c-16.914-21.684-51.976-46.896-77.915-56.028l-90.177-31.747
			c-25.939-9.132-29.421-30.442-7.738-47.355l75.38-58.8c21.684-16.913,46.896-51.975,56.028-77.915l31.747-90.178
			c9.131-25.939,30.441-29.421,47.355-7.738l58.801,75.382c16.914,21.683,51.976,46.896,77.916,56.028L656.09,513.208z"/>
	</g>
	<g>
		<linearGradient id="SVGID_47_" gradientUnits="userSpaceOnUse" x1="188.061" y1="576.9277" x2="673.1826" y2="576.9277">
			<stop  offset="0" style="stop-color:#E90B15"/>
			<stop  offset="1" style="stop-color:#7500E9"/>
		</linearGradient>
		<path fill="none" stroke="url(#SVGID_47_)" stroke-width="0.25" stroke-miterlimit="10" d="M651.787,523.263
			c25.658,9.894,28.51,31.298,6.336,47.563l-79.885,58.603c-22.174,16.266-48.411,50.567-58.305,76.226l-35.646,92.439
			c-9.895,25.658-31.298,28.51-47.564,6.336l-58.601-79.885c-16.266-22.174-50.567-48.411-76.226-58.305l-92.439-35.646
			c-25.659-9.894-28.51-31.298-6.336-47.563l79.885-58.601c22.174-16.267,48.411-50.568,58.305-76.227l35.645-92.44
			c9.894-25.659,31.298-28.51,47.564-6.336l58.602,79.886c16.266,22.173,50.568,48.411,76.226,58.305L651.787,523.263z"/>
	</g>
	<g>
		<linearGradient id="SVGID_48_" gradientUnits="userSpaceOnUse" x1="171.7534" y1="581.2334" x2="668.2188" y2="581.2334">
			<stop  offset="0" style="stop-color:#E90B15"/>
			<stop  offset="1" style="stop-color:#7500E9"/>
		</linearGradient>
		<path fill="none" stroke="url(#SVGID_48_)" stroke-width="0.25" stroke-miterlimit="10" d="M647.505,533.381
			c25.366,10.621,27.606,32.098,4.978,47.725l-84.518,58.37c-22.629,15.627-49.833,49.167-60.455,74.533l-39.672,94.743
			c-10.622,25.366-32.098,27.606-47.725,4.978l-58.369-84.517c-15.627-22.629-49.167-49.833-74.533-60.454l-94.744-39.673
			c-25.366-10.621-27.606-32.098-4.978-47.725l84.519-58.369c22.628-15.627,49.832-49.167,60.454-74.533l39.671-94.745
			c10.622-25.366,32.098-27.606,47.725-4.978l58.37,84.52c15.627,22.628,49.167,49.833,74.534,60.454L647.505,533.381z"/>
	</g>
	<g>
		<linearGradient id="SVGID_49_" gradientUnits="userSpaceOnUse" x1="155.4058" y1="585.5381" x2="663.293" y2="585.5381">
			<stop  offset="0" style="stop-color:#E90B15"/>
			<stop  offset="1" style="stop-color:#7500E9"/>
		</linearGradient>
		<path fill="none" stroke="url(#SVGID_49_)" stroke-width="0.25" stroke-miterlimit="10" d="M643.238,543.562
			c25.064,11.314,26.714,32.844,3.665,47.844l-89.273,58.098c-23.049,15-51.165,47.78-62.479,72.845l-43.824,97.08
			c-11.314,25.064-32.844,26.714-47.844,3.665l-58.097-89.274c-15-23.049-47.779-51.164-72.844-62.479l-97.082-43.824
			c-25.064-11.314-26.713-32.844-3.665-47.844l89.274-58.097c23.049-15,51.165-47.78,62.479-72.845l43.823-97.082
			c11.314-25.065,32.844-26.714,47.844-3.665l58.098,89.275c15,23.049,47.78,51.165,72.845,62.479L643.238,543.562z"/>
	</g>
	<g>
		<linearGradient id="SVGID_50_" gradientUnits="userSpaceOnUse" x1="139.022" y1="589.8438" x2="658.4053" y2="589.8438">
			<stop  offset="0" style="stop-color:#E90B15"/>
			<stop  offset="1" style="stop-color:#7500E9"/>
		</linearGradient>
		<path fill="none" stroke="url(#SVGID_50_)" stroke-width="0.25" stroke-miterlimit="10" d="M638.985,553.802
			c24.757,11.974,25.835,33.54,2.397,47.925l-94.146,57.78c-23.438,14.385-52.411,46.409-64.385,71.166l-48.098,99.442
			c-11.974,24.757-33.54,25.835-47.924,2.397l-57.78-94.146c-14.384-23.438-46.409-52.411-71.165-64.385l-99.443-48.098
			c-24.756-11.974-25.835-33.539-2.397-47.924l94.146-57.779c23.438-14.385,52.411-46.409,64.385-71.166l48.097-99.444
			c11.974-24.756,33.539-25.835,47.924-2.397l57.781,94.148c14.385,23.438,46.409,52.411,71.166,64.384L638.985,553.802z"/>
	</g>
	<g>
		<linearGradient id="SVGID_51_" gradientUnits="userSpaceOnUse" x1="122.606" y1="594.1484" x2="653.5488" y2="594.1484">
			<stop  offset="0" style="stop-color:#E90B15"/>
			<stop  offset="1" style="stop-color:#7500E9"/>
		</linearGradient>
		<path fill="none" stroke="url(#SVGID_51_)" stroke-width="0.25" stroke-miterlimit="10" d="M634.74,564.103
			c24.443,12.601,24.973,34.188,1.176,47.97l-99.128,57.416c-23.797,13.782-53.576,45.059-66.177,69.502l-52.489,101.821
			c-12.601,24.443-34.187,24.973-47.97,1.176l-57.414-99.128c-13.783-23.797-45.059-53.576-69.502-66.177l-101.823-52.489
			c-24.443-12.601-24.972-34.187-1.175-47.97l99.128-57.414c23.797-13.782,53.577-45.058,66.177-69.502l52.488-101.822
			c12.6-24.444,34.187-24.973,47.969-1.176l57.415,99.129c13.783,23.796,45.059,53.576,69.502,66.177L634.74,564.103z"/>
	</g>
	<g>
		<linearGradient id="SVGID_52_" gradientUnits="userSpaceOnUse" x1="106.1616" y1="598.4531" x2="648.7217" y2="598.4531">
			<stop  offset="0" style="stop-color:#E90B15"/>
			<stop  offset="1" style="stop-color:#7500E9"/>
		</linearGradient>
		<path fill="none" stroke="url(#SVGID_52_)" stroke-width="0.25" stroke-miterlimit="10" d="M353.449,345.394
			c13.195-24.127,34.788-24.127,47.984,0l56.996,104.214c13.196,24.127,43.733,54.664,67.86,67.86l104.212,56.994
			c24.128,13.196,24.128,34.789,0.001,47.984l-104.213,56.996c-24.127,13.195-54.664,43.732-67.86,67.859l-56.996,104.213
			c-13.196,24.127-34.789,24.127-47.984-0.001l-56.995-104.211c-13.195-24.128-43.732-54.665-67.859-67.86l-104.213-56.996
			c-24.127-13.195-24.127-34.788,0-47.984l104.213-56.994c24.127-13.196,54.664-43.733,67.859-67.86L353.449,345.394z"/>
	</g>
</g>
<g>
	<g>
		<g>
			<linearGradient id="SVGID_53_" gradientUnits="userSpaceOnUse" x1="-939.9805" y1="631.4512" x2="-255.0313" y2="631.4512">
				<stop  offset="0" style="stop-color:#E90B15"/>
				<stop  offset="1" style="stop-color:#7500E9"/>
			</linearGradient>
			<path fill="none" stroke="url(#SVGID_53_)" stroke-miterlimit="10" d="M-316.067,837.439
				c-2.999,16.225-18.177,34.013-33.728,39.527l-285.382,101.211c-15.551,5.515-38.544,1.265-51.096-9.445l-230.343-196.543
				c-12.552-10.71-20.367-32.748-17.368-48.973l55.04-297.753c2.999-16.225,18.177-34.012,33.728-39.528l285.382-101.211
				c15.551-5.516,38.544-1.265,51.096,9.445l230.342,196.543c12.552,10.71,20.367,32.748,17.368,48.973L-316.067,837.439z"/>
		</g>
		<g>
			<linearGradient id="SVGID_54_" gradientUnits="userSpaceOnUse" x1="-922.5098" y1="640.4473" x2="-255.1655" y2="640.4473">
				<stop  offset="0" style="stop-color:#E90B15"/>
				<stop  offset="1" style="stop-color:#7500E9"/>
			</linearGradient>
			<path fill="none" stroke="url(#SVGID_54_)" stroke-miterlimit="10" d="M-616.321,983.724c-15.43,5.847-38.508,2.089-51.286-8.351
				l-231.13-188.825c-12.778-10.439-21.063-32.305-18.411-48.591l47.964-294.575c2.652-16.285,17.384-34.552,32.739-40.592
				l267.585-105.265c15.354-6.041,38.467-2.56,51.362,7.735l238.352,190.297c12.895,10.295,21.423,32.065,18.952,48.38
				l-44.488,293.746c-2.471,16.314-17.116,34.445-32.546,40.292L-616.321,983.724z"/>
		</g>
		<g>
			<linearGradient id="SVGID_55_" gradientUnits="userSpaceOnUse" x1="-905.0371" y1="649.4434" x2="-255.3013" y2="649.4434">
				<stop  offset="0" style="stop-color:#E90B15"/>
				<stop  offset="1" style="stop-color:#7500E9"/>
			</linearGradient>
			<path fill="none" stroke="url(#SVGID_55_)" stroke-miterlimit="10" d="M-597.485,989.262
				c-15.298,6.183-38.454,2.931-51.457-7.226l-231.917-181.152c-13.003-10.156-21.765-31.836-19.471-48.176l40.923-291.42
				c2.294-16.34,16.543-35.113,31.663-41.718l249.925-109.174c15.121-6.605,38.308-3.93,51.527,5.944l246.425,184.071
				c13.219,9.874,22.462,31.361,20.539,47.749l-34.007,289.795c-1.923,16.388-16.013,34.854-31.311,41.037L-597.485,989.262z"/>
		</g>
		<g>
			<linearGradient id="SVGID_56_" gradientUnits="userSpaceOnUse" x1="-887.5649" y1="658.4385" x2="-255.4375" y2="658.4385">
				<stop  offset="0" style="stop-color:#E90B15"/>
				<stop  offset="1" style="stop-color:#7500E9"/>
			</linearGradient>
			<path fill="none" stroke="url(#SVGID_56_)" stroke-miterlimit="10" d="M-578.669,994.79c-15.155,6.523-38.378,3.792-51.605-6.071
				l-232.71-173.52c-13.228-9.863-22.473-31.34-20.545-47.728l33.916-288.29c1.928-16.387,15.648-35.694,30.489-42.905
				l232.43-112.935c14.841-7.211,38.05-5.379,51.576,4.071l254.567,177.858c13.526,9.45,23.482,30.636,22.125,47.08l-23.593,285.905
				c-1.357,16.444-14.867,35.236-30.023,41.76L-578.669,994.79z"/>
		</g>
		<g>
			<linearGradient id="SVGID_57_" gradientUnits="userSpaceOnUse" x1="-870.0923" y1="667.4346" x2="-255.5752" y2="667.4346">
				<stop  offset="0" style="stop-color:#E90B15"/>
				<stop  offset="1" style="stop-color:#7500E9"/>
			</linearGradient>
			<path fill="none" stroke="url(#SVGID_57_)" stroke-miterlimit="10" d="M-559.872,1000.31c-15.002,6.87-38.281,4.671-51.731-4.887
				l-233.51-165.929c-13.45-9.558-23.185-30.817-21.633-47.244l26.943-285.188c1.552-16.427,14.692-36.297,29.2-44.157
				l215.13-116.54c14.508-7.859,37.68-6.907,51.494,2.117l262.774,171.652c13.814,9.023,24.483,29.892,23.709,46.373
				l-13.241,282.085c-0.774,16.481-13.681,35.587-28.683,42.457L-559.872,1000.31z"/>
		</g>
		<g>
			<linearGradient id="SVGID_58_" gradientUnits="userSpaceOnUse" x1="-852.6187" y1="676.4307" x2="-255.7129" y2="676.4307">
				<stop  offset="0" style="stop-color:#E90B15"/>
				<stop  offset="1" style="stop-color:#7500E9"/>
			</linearGradient>
			<path fill="none" stroke="url(#SVGID_58_)" stroke-miterlimit="10" d="M-541.096,1005.824
				c-14.837,7.219-38.161,5.565-51.831-3.675l-234.318-158.383c-13.67-9.24-23.899-30.266-22.732-46.725l20.003-282.114
				c1.167-16.458,13.668-36.92,27.78-45.47l198.058-119.992c14.112-8.55,37.181-8.511,51.265,0.085L-281.822,515
				c14.083,8.597,25.463,29.129,25.289,45.628l-2.947,278.339c-0.175,16.499-12.458,35.904-27.294,43.123L-541.096,1005.824z"/>
		</g>
		<g>
			<linearGradient id="SVGID_59_" gradientUnits="userSpaceOnUse" x1="-839.5903" y1="685.4258" x2="-251.3906" y2="685.4258">
				<stop  offset="0" style="stop-color:#E90B15"/>
				<stop  offset="1" style="stop-color:#7500E9"/>
			</linearGradient>
			<path fill="none" stroke="url(#SVGID_59_)" stroke-miterlimit="10" d="M-526.786,1011.332
				c-14.66,7.571-38.018,6.475-51.904-2.436l-235.138-150.878c-13.887-8.91-24.616-29.687-23.843-46.168l13.095-279.073
				c0.773-16.481,12.568-37.56,26.211-46.84l181.253-123.298c13.643-9.28,36.533-10.188,50.869-2.018l279.391,159.243
				c14.335,8.171,26.422,28.351,26.86,44.845l7.297,274.673c0.438,16.494-11.199,36.184-25.859,43.755L-526.786,1011.332z"/>
		</g>
		<g>
			<linearGradient id="SVGID_60_" gradientUnits="userSpaceOnUse" x1="-828.3521" y1="694.4209" x2="-245.2715" y2="694.4209">
				<stop  offset="0" style="stop-color:#E90B15"/>
				<stop  offset="1" style="stop-color:#7500E9"/>
			</linearGradient>
			<path fill="none" stroke="url(#SVGID_60_)" stroke-miterlimit="10" d="M-514.29,1016.836c-14.472,7.926-37.849,7.399-51.949-1.17
				l-235.971-143.417c-14.101-8.569-25.333-29.077-24.961-45.573l6.217-276.065c0.372-16.496,11.384-38.213,24.472-48.26
				l164.758-126.473c13.088-10.047,35.717-11.93,50.285-4.183l287.798,153.029c14.568,7.747,27.358,27.557,28.42,44.022
				l17.497,271.092c1.063,16.466-9.908,36.423-24.38,44.349L-514.29,1016.836z"/>
		</g>
		<g>
			<linearGradient id="SVGID_61_" gradientUnits="userSpaceOnUse" x1="-817.5015" y1="703.416" x2="-238.7656" y2="703.416">
				<stop  offset="0" style="stop-color:#E90B15"/>
				<stop  offset="1" style="stop-color:#7500E9"/>
			</linearGradient>
			<path fill="none" stroke="url(#SVGID_61_)" stroke-miterlimit="10" d="M-501.43,1022.335c-14.27,8.283-37.653,8.338-51.961,0.121
				l-236.822-135.999c-14.309-8.217-26.047-28.439-26.085-44.939l-0.633-273.092c-0.038-16.5,10.107-38.871,22.545-49.713
				l148.612-129.545c12.438-10.842,34.71-13.719,49.495-6.393l296.268,146.803c14.785,7.325,28.269,26.748,29.966,43.16
				l27.665,267.602c1.697,16.412-8.591,36.618-22.861,44.901L-501.43,1022.335z"/>
		</g>
		<g>
			<linearGradient id="SVGID_62_" gradientUnits="userSpaceOnUse" x1="-810.4458" y1="712.4102" x2="-228.4766" y2="712.4102">
				<stop  offset="0" style="stop-color:#E90B15"/>
				<stop  offset="1" style="stop-color:#7500E9"/>
			</linearGradient>
			<path fill="none" stroke="url(#SVGID_62_)" stroke-miterlimit="10" d="M-484.81,1027.833c-14.057,8.641-37.43,9.286-51.942,1.434
				l-237.692-128.621c-14.512-7.853-26.757-27.772-27.212-44.266l-7.457-270.157c-0.455-16.493,8.729-39.523,20.409-51.178
				l132.855-132.556c11.68-11.654,33.496-15.536,48.479-8.626l304.8,140.56c14.983,6.91,29.155,25.928,31.492,42.261l37.808,264.205
				c2.337,16.333-7.251,36.768-21.308,45.408L-484.81,1027.833z"/>
		</g>
		<g>
			<linearGradient id="SVGID_63_" gradientUnits="userSpaceOnUse" x1="-803.3892" y1="721.4043" x2="-218.1885" y2="721.4043">
				<stop  offset="0" style="stop-color:#E90B15"/>
				<stop  offset="1" style="stop-color:#7500E9"/>
			</linearGradient>
			<path fill="none" stroke="url(#SVGID_63_)" stroke-miterlimit="10" d="M-468.212,1033.33
				c-13.83,8.999-37.179,10.244-51.888,2.768l-238.584-121.285c-14.708-7.477-27.462-27.075-28.341-43.552l-14.256-267.262
				c-0.879-16.477,7.245-40.157,18.053-52.625l117.516-135.562c10.808-12.467,32.06-17.351,47.226-10.852l313.392,134.298
				c15.166,6.499,30.014,25.094,32.996,41.322l47.937,260.904c2.982,16.229-5.894,36.869-19.724,45.868L-468.212,1033.33z"/>
		</g>
		<g>
			<linearGradient id="SVGID_64_" gradientUnits="userSpaceOnUse" x1="-796.3306" y1="730.3994" x2="-207.8999" y2="730.3994">
				<stop  offset="0" style="stop-color:#E90B15"/>
				<stop  offset="1" style="stop-color:#7500E9"/>
			</linearGradient>
			<path fill="none" stroke="url(#SVGID_64_)" stroke-miterlimit="10" d="M-451.638,1038.829
				c-13.59,9.356-36.899,11.211-51.798,4.12L-742.938,928.96c-14.898-7.091-28.159-26.35-29.467-42.798l-21.034-264.407
				c-1.309-16.448,5.652-40.756,15.469-54.019l102.611-138.634c9.816-13.262,30.393-19.126,45.726-13.032l322.04,128.012
				c15.333,6.096,30.846,24.252,34.473,40.349l58.063,257.698c3.627,16.097-4.525,36.923-18.115,46.279L-451.638,1038.829z"/>
		</g>
		<g>
			<linearGradient id="SVGID_65_" gradientUnits="userSpaceOnUse" x1="-789.271" y1="739.3945" x2="-197.6123" y2="739.3945">
				<stop  offset="0" style="stop-color:#E90B15"/>
				<stop  offset="1" style="stop-color:#7500E9"/>
			</linearGradient>
			<path fill="none" stroke="url(#SVGID_65_)" stroke-miterlimit="10" d="M-435.088,1044.329
				c-13.338,9.714-36.589,12.184-51.67,5.49l-240.447-106.73c-15.081-6.693-28.846-25.596-30.589-42.003l-27.792-261.597
				c-1.743-16.407,3.955-41.299,12.662-55.314l88.132-141.858c8.708-14.015,28.501-20.821,43.986-15.123l330.744,121.7
				c15.485,5.697,31.647,23.399,35.917,39.338l68.199,254.591c4.27,15.938-3.15,36.926-16.488,46.64L-435.088,1044.329z"/>
		</g>
		<g>
			<linearGradient id="SVGID_66_" gradientUnits="userSpaceOnUse" x1="-782.2109" y1="748.3887" x2="-187.3247" y2="748.3887">
				<stop  offset="0" style="stop-color:#E90B15"/>
				<stop  offset="1" style="stop-color:#7500E9"/>
			</linearGradient>
			<path fill="none" stroke="url(#SVGID_66_)" stroke-miterlimit="10" d="M-418.561,1049.835
				c-13.073,10.067-36.25,13.16-51.505,6.873L-711.487,957.2c-15.255-6.287-29.522-24.813-31.704-41.168l-34.536-258.83
				c-2.182-16.354,2.161-41.765,9.652-56.467l74.045-145.326c7.491-14.702,26.402-22.387,42.024-17.079l339.499,115.36
				c15.623,5.309,32.419,22.542,37.326,38.295l78.355,251.579c4.907,15.753-1.775,36.88-14.848,46.947L-418.561,1049.835z"/>
		</g>
		<g>
			<linearGradient id="SVGID_67_" gradientUnits="userSpaceOnUse" x1="-775.1494" y1="757.3838" x2="-177.0386" y2="757.3838">
				<stop  offset="0" style="stop-color:#E90B15"/>
				<stop  offset="1" style="stop-color:#7500E9"/>
			</linearGradient>
			<path fill="none" stroke="url(#SVGID_67_)" stroke-miterlimit="10" d="M-402.056,1055.346
				c-12.795,10.419-35.88,14.138-51.3,8.267l-242.431-92.318c-15.42-5.871-30.184-24.004-32.809-40.294l-41.266-256.108
				c-2.625-16.29,0.287-42.134,6.471-57.432l60.285-149.123c6.184-15.297,24.127-23.782,39.875-18.854l348.303,108.99
				c15.747,4.928,33.159,21.677,38.694,37.221l88.542,248.657c5.535,15.544-0.405,36.785-13.2,47.204L-402.056,1055.346z"/>
		</g>
		<g>
			<linearGradient id="SVGID_68_" gradientUnits="userSpaceOnUse" x1="-768.0864" y1="766.3779" x2="-166.7524" y2="766.3779">
				<stop  offset="0" style="stop-color:#E90B15"/>
				<stop  offset="1" style="stop-color:#7500E9"/>
			</linearGradient>
			<path fill="none" stroke="url(#SVGID_68_)" stroke-miterlimit="10" d="M-385.574,1060.865
				c-12.505,10.764-35.479,15.114-51.054,9.667l-243.476-85.159c-15.575-5.447-30.83-23.169-33.899-39.381l-47.988-253.435
				c-3.07-16.212-1.644-42.39,3.169-58.172l46.759-153.322c4.813-15.782,21.727-24.968,37.585-20.413l357.152,102.588
				c15.859,4.556,33.867,20.809,40.019,36.119l98.771,245.822c6.152,15.311,0.954,36.645-11.551,47.408L-385.574,1060.865z"/>
		</g>
		<g>
			<linearGradient id="SVGID_69_" gradientUnits="userSpaceOnUse" x1="-761.0225" y1="775.373" x2="-156.4668" y2="775.373">
				<stop  offset="0" style="stop-color:#E90B15"/>
				<stop  offset="1" style="stop-color:#7500E9"/>
			</linearGradient>
			<path fill="none" stroke="url(#SVGID_69_)" stroke-miterlimit="10" d="M-369.113,1066.394
				c-12.203,11.106-35.049,16.089-50.768,11.073l-244.559-78.029c-15.719-5.016-31.458-22.309-34.974-38.43l-54.704-250.809
				c-3.516-16.121-3.604-42.52-0.195-58.663l33.354-157.97c3.409-16.144,19.255-25.923,35.213-21.731l366.044,96.152
				c15.958,4.192,34.542,19.939,41.296,34.993l109.054,243.07c6.754,15.054,2.296,36.457-9.907,47.563L-369.113,1066.394z"/>
		</g>
		<g>
			<linearGradient id="SVGID_70_" gradientUnits="userSpaceOnUse" x1="-753.9575" y1="784.3682" x2="-146.1826" y2="784.3682">
				<stop  offset="0" style="stop-color:#E90B15"/>
				<stop  offset="1" style="stop-color:#7500E9"/>
			</linearGradient>
			<path fill="none" stroke="url(#SVGID_70_)" stroke-miterlimit="10" d="M-352.674,1071.934
				c-11.89,11.44-34.588,17.057-50.44,12.48l-245.683-70.926c-15.853-4.576-32.066-21.425-36.029-37.442l-61.419-248.228
				c-3.963-16.018-5.566-42.522-3.563-58.9l19.953-163.082c2.004-16.378,16.772-26.638,32.82-22.8l374.977,89.684
				c16.048,3.838,35.183,19.069,42.522,33.847l119.397,240.393c7.339,14.777,3.617,36.229-8.273,47.669L-352.674,1071.934z"/>
		</g>
		<g>
			<linearGradient id="SVGID_71_" gradientUnits="userSpaceOnUse" x1="-746.8911" y1="793.3633" x2="-135.8984" y2="793.3633">
				<stop  offset="0" style="stop-color:#E90B15"/>
				<stop  offset="1" style="stop-color:#7500E9"/>
			</linearGradient>
			<path fill="none" stroke="url(#SVGID_71_)" stroke-miterlimit="10" d="M-336.254,1077.485
				c-11.565,11.769-34.097,18.018-50.072,13.886l-246.848-63.84c-15.975-4.132-32.652-20.521-37.062-36.421l-68.136-245.696
				c-4.41-15.9-7.502-42.399-6.873-58.888l6.438-168.646c0.629-16.488,14.338-27.12,30.464-23.626l383.947,83.181
				c16.126,3.494,35.789,18.202,43.695,32.685L-150.89,847.9c7.906,14.482,4.913,35.961-6.652,47.729L-336.254,1077.485z"/>
		</g>
		<g>
			<linearGradient id="SVGID_72_" gradientUnits="userSpaceOnUse" x1="-744.7451" y1="802.3594" x2="-120.7236" y2="802.3594">
				<stop  offset="0" style="stop-color:#E90B15"/>
				<stop  offset="1" style="stop-color:#7500E9"/>
			</linearGradient>
			<path fill="none" stroke="url(#SVGID_72_)" stroke-miterlimit="10" d="M-314.962,1083.053
				c-11.23,12.089-33.578,18.968-49.662,15.286l-248.058-56.776c-16.084-3.682-33.215-19.596-38.069-35.366l-74.859-243.211
				c-4.854-15.771-9.388-42.161-10.075-58.646l-7.284-174.618c-0.688-16.485,12-27.39,28.195-24.23l392.952,76.644
				c16.195,3.159,36.36,17.338,44.813,31.509l140.297,235.229c8.452,14.171,6.179,35.656-5.051,47.745L-314.962,1083.053z"/>
		</g>
		<g>
			<linearGradient id="SVGID_73_" gradientUnits="userSpaceOnUse" x1="-746.9883" y1="811.3555" x2="-101.186" y2="811.3555">
				<stop  offset="0" style="stop-color:#E90B15"/>
				<stop  offset="1" style="stop-color:#7500E9"/>
			</linearGradient>
			<path fill="none" stroke="url(#SVGID_73_)" stroke-miterlimit="10" d="M-289.323,1088.636
				c-10.886,12.399-33.031,19.904-49.212,16.677l-249.313-49.725c-16.181-3.228-33.753-18.654-39.049-34.281l-81.593-240.773
				c-5.295-15.627-11.206-41.82-13.133-58.208l-21.285-180.938c-1.928-16.388,9.794-27.477,26.049-24.644l401.99,70.071
				c16.255,2.833,36.897,16.479,45.873,30.325l150.867,232.729c8.975,13.846,7.412,35.319-3.474,47.719L-289.323,1088.636z"/>
		</g>
		<g>
			<linearGradient id="SVGID_74_" gradientUnits="userSpaceOnUse" x1="-749.231" y1="820.3525" x2="-81.6494" y2="820.3525">
				<stop  offset="0" style="stop-color:#E90B15"/>
				<stop  offset="1" style="stop-color:#7500E9"/>
			</linearGradient>
			<path fill="none" stroke="url(#SVGID_74_)" stroke-miterlimit="10" d="M-263.701,1094.236
				c-10.532,12.702-32.458,20.827-48.724,18.057l-250.614-42.687c-16.266-2.771-34.265-17.696-39.999-33.168l-88.34-238.38
				c-5.734-15.472-12.943-41.394-16.021-57.604l-35.612-187.544c-3.078-16.211,7.745-27.414,24.052-24.896l411.056,63.464
				c16.307,2.518,37.401,15.629,46.876,29.138l161.521,230.272c9.475,13.509,8.61,34.952-1.922,47.654L-263.701,1094.236z"/>
		</g>
		<g>
			<linearGradient id="SVGID_75_" gradientUnits="userSpaceOnUse" x1="-751.4727" y1="829.3496" x2="-62.1133" y2="829.3496">
				<stop  offset="0" style="stop-color:#E90B15"/>
				<stop  offset="1" style="stop-color:#7500E9"/>
			</linearGradient>
			<path fill="none" stroke="url(#SVGID_75_)" stroke-miterlimit="10" d="M-238.093,1099.855
				c-10.171,12.993-31.859,21.731-48.196,19.42l-251.962-35.653c-16.337-2.312-34.75-16.725-40.916-32.029l-95.106-236.031
				c-6.167-15.305-14.593-40.896-18.727-56.87l-50.288-194.366c-4.133-15.975,5.864-27.234,22.215-25.023l420.15,56.821
				c16.351,2.211,37.871,14.789,47.822,27.951l172.264,227.849c9.951,13.162,9.771,34.561-0.4,47.554L-238.093,1099.855z"/>
		</g>
		<g>
			<linearGradient id="SVGID_76_" gradientUnits="userSpaceOnUse" x1="-753.7129" y1="838.3477" x2="-42.5781" y2="838.3477">
				<stop  offset="0" style="stop-color:#E90B15"/>
				<stop  offset="1" style="stop-color:#7500E9"/>
			</linearGradient>
			<path fill="none" stroke="url(#SVGID_76_)" stroke-miterlimit="10" d="M-212.498,1105.494
				c-9.802,13.273-31.236,22.617-47.632,20.766l-253.358-28.622c-16.396-1.853-35.206-15.743-41.799-30.868L-657.18,833.043
				c-6.594-15.125-16.154-40.341-21.246-56.036l-65.314-201.345c-5.091-15.695,4.152-26.97,20.541-25.056l429.27,50.146
				c16.389,1.914,38.308,13.96,48.71,26.768l183.096,225.451c10.402,12.808,10.893,34.146,1.091,47.42L-212.498,1105.494z"/>
		</g>
		<g>
			<linearGradient id="SVGID_77_" gradientUnits="userSpaceOnUse" x1="-755.9512" y1="847.3457" x2="-23.0439" y2="847.3457">
				<stop  offset="0" style="stop-color:#E90B15"/>
				<stop  offset="1" style="stop-color:#7500E9"/>
			</linearGradient>
			<path fill="none" stroke="url(#SVGID_77_)" stroke-miterlimit="10" d="M-186.915,1111.154
				c-9.427,13.541-30.592,23.481-47.033,22.088l-254.801-21.59c-16.441-1.394-35.632-14.753-42.646-29.688l-108.703-231.46
				c-7.014-14.935-17.626-39.744-23.583-55.132l-80.681-208.425c-5.956-15.388,2.604-26.646,19.024-25.02l438.413,43.435
				c16.42,1.627,38.713,13.145,49.542,25.594l194.018,223.07c10.829,12.449,11.975,33.716,2.548,47.257L-186.915,1111.154z"/>
		</g>
		<g>
			<linearGradient id="SVGID_78_" gradientUnits="userSpaceOnUse" x1="-758.187" y1="856.3438" x2="-3.5098" y2="856.3438">
				<stop  offset="0" style="stop-color:#E90B15"/>
				<stop  offset="1" style="stop-color:#7500E9"/>
			</linearGradient>
			<path fill="none" stroke="url(#SVGID_78_)" stroke-miterlimit="10" d="M-161.341,1116.836
				c-9.047,13.799-29.927,24.323-46.4,23.388l-256.292-14.554c-16.474-0.936-36.028-13.757-43.455-28.49l-115.543-229.232
				c-7.427-14.733-19.012-39.113-25.746-54.177l-96.365-215.567c-6.734-15.063,1.212-26.285,17.656-24.937l447.578,36.692
				c16.444,1.348,39.088,12.342,50.318,24.431l205.029,220.699c11.23,12.089,13.017,33.27,3.97,47.068L-161.341,1116.836z"/>
		</g>
		<g>
			<linearGradient id="SVGID_79_" gradientUnits="userSpaceOnUse" x1="-760.4204" y1="865.3438" x2="16.0229" y2="865.3438">
				<stop  offset="0" style="stop-color:#E90B15"/>
				<stop  offset="1" style="stop-color:#7500E9"/>
			</linearGradient>
			<path fill="none" stroke="url(#SVGID_79_)" stroke-miterlimit="10" d="M-135.775,1122.541
				c-8.663,14.043-29.244,25.141-45.737,24.66l-257.83-7.508c-16.493-0.48-36.394-12.756-44.225-27.279L-605.98,885.373
				c-7.831-14.523-20.317-38.46-27.748-53.192L-746.07,609.446c-7.431-14.732-0.039-25.903,16.426-24.825l456.76,29.918
				c16.465,1.078,39.434,11.556,51.042,23.281L-5.714,856.154c11.608,11.726,14.018,32.811,5.355,46.854L-135.775,1122.541z"/>
		</g>
		<g>
			<linearGradient id="SVGID_80_" gradientUnits="userSpaceOnUse" x1="-762.6519" y1="874.3418" x2="35.5552" y2="874.3418">
				<stop  offset="0" style="stop-color:#E90B15"/>
				<stop  offset="1" style="stop-color:#7500E9"/>
			</linearGradient>
			<path fill="none" stroke="url(#SVGID_80_)" stroke-miterlimit="10" d="M-110.215,1128.268
				c-8.275,14.275-28.545,25.932-45.045,25.903l-259.413-0.449c-16.5-0.028-36.73-11.755-44.955-26.059l-129.318-224.882
				c-8.225-14.304-21.545-37.789-29.599-52.189L-747.13,620.688c-8.054-14.4-1.161-25.514,15.319-24.696l465.961,23.111
				c16.48,0.817,39.75,10.785,51.712,22.149L13.176,857.216c11.962,11.364,14.979,32.343,6.704,46.618L-110.215,1128.268z"/>
		</g>
		<g>
			<linearGradient id="SVGID_81_" gradientUnits="userSpaceOnUse" x1="-764.8804" y1="883.3477" x2="55.0864" y2="883.3477">
				<stop  offset="0" style="stop-color:#E90B15"/>
				<stop  offset="1" style="stop-color:#7500E9"/>
			</linearGradient>
			<path fill="none" stroke="url(#SVGID_81_)" stroke-miterlimit="10" d="M-84.659,1129.943
				c-7.885,14.495-27.832,26.696-44.326,27.115l-261.041,6.625c-16.495,0.419-37.035-10.755-45.645-24.83L-571.93,916.1
				c-8.61-14.075-22.701-37.106-31.313-51.181L-748.31,627.864c-8.612-14.074-2.167-25.127,14.323-24.562l475.179,16.273
				c16.49,0.565,40.041,10.032,52.334,21.037L32.106,854.2c12.293,11.005,15.9,31.868,8.016,46.363L-84.659,1129.943z"/>
		</g>
		<g>
			<linearGradient id="SVGID_82_" gradientUnits="userSpaceOnUse" x1="-767.1064" y1="892.3555" x2="74.6177" y2="892.3555">
				<stop  offset="0" style="stop-color:#E90B15"/>
				<stop  offset="1" style="stop-color:#7500E9"/>
			</linearGradient>
			<path fill="none" stroke="url(#SVGID_82_)" stroke-miterlimit="10" d="M-59.105,1131.367
				c-7.494,14.7-27.106,27.432-43.583,28.292l-262.712,13.722c-16.478,0.86-37.31-9.759-46.294-23.599l-143.238-220.654
				c-8.984-13.84-23.791-36.418-32.903-50.173l-161.759-244.176c-9.113-13.755-3.071-24.748,13.426-24.428l484.411,9.408
				c16.497,0.32,40.306,9.296,52.908,19.945L51.078,850.901c12.603,10.649,16.783,31.391,9.29,46.091L-59.105,1131.367z"/>
		</g>
		<g>
			<linearGradient id="SVGID_83_" gradientUnits="userSpaceOnUse" x1="-769.3306" y1="901.3623" x2="94.1475" y2="901.3623">
				<stop  offset="0" style="stop-color:#E90B15"/>
				<stop  offset="1" style="stop-color:#7500E9"/>
			</linearGradient>
			<path fill="none" stroke="url(#SVGID_83_)" stroke-miterlimit="10" d="M-33.552,1132.814
				c-7.102,14.894-26.371,28.14-42.82,29.436l-264.424,20.838c-16.449,1.296-37.555-8.769-46.902-22.365l-150.258-218.579
				c-9.347-13.597-24.817-35.725-34.378-49.172l-178.64-251.258c-9.561-13.447-3.884-24.382,12.616-24.298l493.656,2.512
				c16.5,0.084,40.547,8.578,53.438,18.877l261.351,208.79c12.892,10.299,17.628,30.91,10.526,45.804L-33.552,1132.814z"/>
		</g>
		<g>
			<linearGradient id="SVGID_84_" gradientUnits="userSpaceOnUse" x1="-771.5518" y1="910.3633" x2="113.6772" y2="910.3633">
				<stop  offset="0" style="stop-color:#E90B15"/>
				<stop  offset="1" style="stop-color:#7500E9"/>
			</linearGradient>
			<path fill="none" stroke="url(#SVGID_84_)" stroke-miterlimit="10" d="M-7.999,1136.755
				c-6.711,15.073-25.628,28.817-42.037,30.542l-266.175,27.98c-16.409,1.725-37.771-7.786-47.469-21.135L-521,957.619
				c-9.698-13.349-25.786-35.031-35.75-48.183L-752.436,651.14c-9.964-13.151-4.617-24.03,11.883-24.176l502.913-4.412
				c16.5-0.146,40.766,7.88,53.926,17.833L89.132,846.746c13.16,9.953,18.437,30.43,11.726,45.503L-7.999,1136.755z"/>
		</g>
		<g>
			<linearGradient id="SVGID_85_" gradientUnits="userSpaceOnUse" x1="-773.7705" y1="919.3623" x2="133.2065" y2="919.3623">
				<stop  offset="0" style="stop-color:#E90B15"/>
				<stop  offset="1" style="stop-color:#7500E9"/>
			</linearGradient>
			<path fill="none" stroke="url(#SVGID_85_)" stroke-miterlimit="10" d="M17.559,1142.126
				c-6.322,15.241-24.879,29.467-41.239,31.612l-267.964,35.15c-16.36,2.146-37.958-6.812-47.997-19.907l-164.424-214.488
				c-10.038-13.096-26.701-34.339-37.027-47.208l-212.878-265.288c-10.327-12.869-5.279-23.698,11.217-24.063l512.181-11.364
				c16.496-0.365,40.964,7.201,54.374,16.815l284.411,203.91c13.41,9.614,19.209,29.95,12.888,45.191L17.559,1142.126z"/>
		</g>
		<g>
			<linearGradient id="SVGID_86_" gradientUnits="userSpaceOnUse" x1="-775.9878" y1="928.3613" x2="152.7358" y2="928.3613">
				<stop  offset="0" style="stop-color:#E90B15"/>
				<stop  offset="1" style="stop-color:#7500E9"/>
			</linearGradient>
			<path fill="none" stroke="url(#SVGID_86_)" stroke-miterlimit="10" d="M43.12,1147.521
				c-5.934,15.396-24.126,30.086-40.427,32.645l-269.789,42.351c-16.3,2.559-38.119-5.851-48.485-18.688l-171.571-212.47
				c-10.366-12.837-27.564-33.648-38.219-46.248L-755.57,672.879c-10.654-12.6-5.879-23.383,10.611-23.963l521.459-18.341
				c16.49-0.58,41.143,6.54,54.784,15.822l296.04,201.434c13.642,9.282,19.947,29.474,14.013,44.869L43.12,1147.521z"/>
		</g>
		<g>
			<linearGradient id="SVGID_87_" gradientUnits="userSpaceOnUse" x1="-778.2026" y1="937.3594" x2="172.2642" y2="937.3594">
				<stop  offset="0" style="stop-color:#E90B15"/>
				<stop  offset="1" style="stop-color:#7500E9"/>
			</linearGradient>
			<path fill="none" stroke="url(#SVGID_87_)" stroke-miterlimit="10" d="M68.686,1152.938
				c-5.55,15.539-23.372,30.676-39.603,33.639l-271.647,49.583c-16.231,2.963-38.252-4.902-48.934-17.479l-178.764-210.462
				c-10.682-12.576-28.381-32.964-39.331-45.307l-247.634-279.128c-10.95-12.343-6.424-23.085,10.057-23.872l530.746-25.345
				c16.481-0.787,41.303,5.898,55.16,14.856l307.729,198.93c13.857,8.958,20.653,29,15.104,44.539L68.686,1152.938z"/>
		</g>
		<g>
			<linearGradient id="SVGID_88_" gradientUnits="userSpaceOnUse" x1="-780.4155" y1="946.3574" x2="191.7925" y2="946.3574">
				<stop  offset="0" style="stop-color:#E90B15"/>
				<stop  offset="1" style="stop-color:#7500E9"/>
			</linearGradient>
			<path fill="none" stroke="url(#SVGID_88_)" stroke-miterlimit="10" d="M94.26,1158.376
				c-5.169,15.669-22.617,31.236-38.772,34.594l-273.535,56.849c-16.155,3.357-38.36-3.969-49.345-16.28l-186.001-208.465
				c-10.985-12.312-29.152-32.284-40.371-44.383l-265.167-285.978c-11.219-12.099-6.922-22.806,9.548-23.793l540.041-32.372
				c16.471-0.987,41.447,5.275,55.503,13.916l319.476,196.397c14.057,8.641,21.327,28.531,16.158,44.2L94.26,1158.376z"/>
		</g>
		<g>
			<linearGradient id="SVGID_89_" gradientUnits="userSpaceOnUse" x1="-782.6274" y1="955.3555" x2="211.3213" y2="955.3555">
				<stop  offset="0" style="stop-color:#E90B15"/>
				<stop  offset="1" style="stop-color:#7500E9"/>
			</linearGradient>
			<path fill="none" stroke="url(#SVGID_89_)" stroke-miterlimit="10" d="M119.842,1163.835
				c-4.794,15.788-21.864,31.769-37.935,35.511l-275.452,64.149c-16.07,3.742-38.444-3.051-49.72-15.097l-193.283-206.474
				c-11.276-12.046-29.881-31.611-41.344-43.479l-282.791-292.78c-11.463-11.868-7.376-22.545,9.081-23.726l549.343-39.423
				c16.458-1.181,41.575,4.67,55.816,13.003l331.277,193.835c14.241,8.333,21.971,28.068,17.177,43.856L119.842,1163.835z"/>
		</g>
		<g>
			<linearGradient id="SVGID_90_" gradientUnits="userSpaceOnUse" x1="-784.8369" y1="964.3545" x2="230.8491" y2="964.3545">
				<stop  offset="0" style="stop-color:#E90B15"/>
				<stop  offset="1" style="stop-color:#7500E9"/>
			</linearGradient>
			<path fill="none" stroke="url(#SVGID_90_)" stroke-miterlimit="10" d="M145.433,1169.314
				c-4.423,15.896-21.115,32.271-37.093,36.389l-277.396,71.488c-15.978,4.117-38.505-2.15-50.06-13.929l-200.608-204.489
				c-11.555-11.778-30.57-30.945-42.256-42.595l-300.492-299.54c-11.686-11.648-7.793-22.3,8.649-23.668l558.652-46.497
				c16.443-1.368,41.688,4.084,56.101,12.117l343.126,191.241c14.413,8.033,22.586,27.611,18.163,43.508L145.433,1169.314z"/>
		</g>
		<g>
			<linearGradient id="SVGID_91_" gradientUnits="userSpaceOnUse" x1="-787.0449" y1="973.3516" x2="250.3765" y2="973.3516">
				<stop  offset="0" style="stop-color:#E90B15"/>
				<stop  offset="1" style="stop-color:#7500E9"/>
			</linearGradient>
			<path fill="none" stroke="url(#SVGID_91_)" stroke-miterlimit="10" d="M171.033,1174.813
				c-4.058,15.993-20.37,32.747-36.249,37.229l-279.362,78.861c-15.879,4.482-38.544-1.268-50.366-12.778l-207.978-202.504
				c-11.822-11.511-31.222-30.289-43.111-41.73l-318.263-306.26c-11.89-11.441-8.177-22.07,8.25-23.62l567.966-53.592
				c16.427-1.55,41.789,3.516,56.36,11.257l355.022,188.618c14.571,7.741,23.173,27.16,19.116,43.154L171.033,1174.813z"/>
		</g>
		<g>
			<linearGradient id="SVGID_92_" gradientUnits="userSpaceOnUse" x1="-789.252" y1="982.3496" x2="269.9043" y2="982.3496">
				<stop  offset="0" style="stop-color:#E90B15"/>
				<stop  offset="1" style="stop-color:#7500E9"/>
			</linearGradient>
			<path fill="none" stroke="url(#SVGID_92_)" stroke-miterlimit="10" d="M196.645,1180.333
				c-3.698,16.08-19.631,33.194-35.406,38.031l-281.351,86.272c-15.775,4.837-38.563-0.404-50.639-11.646l-215.391-200.521
				c-12.077-11.242-31.838-29.641-43.914-40.885l-336.096-312.939c-12.076-11.244-8.53-21.855,7.879-23.581l577.285-60.709
				c16.41-1.726,41.877,2.965,56.596,10.423l366.96,185.963c14.718,7.458,23.734,26.717,20.036,42.797L196.645,1180.333z"/>
		</g>
		<g>
			<linearGradient id="SVGID_93_" gradientUnits="userSpaceOnUse" x1="-791.4575" y1="991.3477" x2="289.4316" y2="991.3477">
				<stop  offset="0" style="stop-color:#E90B15"/>
				<stop  offset="1" style="stop-color:#7500E9"/>
			</linearGradient>
			<path fill="none" stroke="url(#SVGID_93_)" stroke-miterlimit="10" d="M222.268,1185.868
				c-3.345,16.157-18.899,33.616-34.565,38.798l-283.357,93.723c-15.666,5.182-38.563,0.44-50.882-10.535l-222.846-198.534
				c-12.32-10.976-32.42-29.003-44.667-40.06l-353.984-319.582c-12.247-11.057-8.857-21.654,7.534-23.551l586.609-67.846
				c16.391-1.896,41.955,2.431,56.808,9.615l378.939,183.275c14.854,7.185,24.27,26.282,20.924,42.439L222.268,1185.868z"/>
		</g>
		<g>
			<linearGradient id="SVGID_94_" gradientUnits="userSpaceOnUse" x1="-793.6616" y1="1000.3457" x2="308.959" y2="1000.3457">
				<stop  offset="0" style="stop-color:#E90B15"/>
				<stop  offset="1" style="stop-color:#7500E9"/>
			</linearGradient>
			<path fill="none" stroke="url(#SVGID_94_)" stroke-miterlimit="10" d="M247.904,1191.421
				c-2.999,16.225-18.177,34.013-33.728,39.527l-285.382,101.211c-15.551,5.515-38.544,1.265-51.096-9.445l-230.343-196.543
				c-12.552-10.71-32.971-28.374-45.376-39.254l-371.921-326.189c-12.405-10.88-9.16-21.467,7.21-23.527l595.937-75.004
				c16.371-2.061,42.021,1.914,57.001,8.832l390.954,180.561c14.98,6.918,24.782,25.854,21.783,42.078L247.904,1191.421z"/>
		</g>
	</g>
</g>
</svg>
