<?xml version="1.0" encoding="utf-8"?>
<!-- Generator: Adobe Illustrator 16.0.0, SVG Export Plug-In . SVG Version: 6.00 Build 0)  -->
<!DOCTYPE svg PUBLIC "-//W3C//DTD SVG 1.1//EN" "http://www.w3.org/Graphics/SVG/1.1/DTD/svg11.dtd">
<svg version="1.1" id="圖層_1" xmlns="http://www.w3.org/2000/svg" xmlns:xlink="http://www.w3.org/1999/xlink" x="0px" y="0px"
	 width="1000px" height="1000px" viewBox="0 0 1000 1000" enable-background="new 0 0 1000 1000" xml:space="preserve">
<g opacity="0.7">
	<g>
		<path fill="none" stroke="#E4007F" stroke-width="0.25" stroke-miterlimit="10" d="M80.295,70.132
			c7.83-6.921,13.744-4.048,13.144,6.385l-1.687,29.311c-0.601,10.433,7.435,19.597,17.857,20.366l95.598,7.047
			c10.422,0.769,24.137,8.193,30.478,16.5l34.045,44.6c6.341,8.306,4.455,19.904-4.191,25.773l-62.78,42.615
			c-8.646,5.869-23.947,8.343-34.002,5.497L72.84,241.079c-10.055-2.846-25.941-1.375-35.304,3.268l-35.52,17.614
			c-9.362,4.643-25.483,7.212-35.825,5.711l-2.757-0.401c-10.341-1.501-17.715-11.211-16.386-21.576l8.018-62.518
			c1.33-10.365,9.591-23.498,18.359-29.183l29.089-18.861c8.768-5.685,22.348-16,30.177-22.921L80.295,70.132z"/>
	</g>
	<g>
		<path fill="none" stroke="#DE0481" stroke-width="0.25" stroke-miterlimit="10" d="M210.516,264.265
			c-8.247,6.418-23.268,9.515-33.381,6.882l-99.209-25.833c-10.113-2.633-25.83-0.58-34.927,4.563L5.236,271.224
			c-9.097,5.143-24.757,6.987-34.8,4.1l-5.933-1.706c-10.043-2.888-17.8-13.788-17.237-24.223l3.265-60.525
			c0.563-10.435,8.111-23.754,16.773-29.599l32.977-22.25c8.663-5.845,21.804-16.665,29.204-24.043l45.827-45.7
			c7.399-7.379,13.784-4.873,14.188,5.569l1.192,30.786c0.404,10.442,9.276,19.374,19.715,19.849l98.25,4.465
			c10.439,0.475,23.787,7.934,29.66,16.577l32.93,48.452c5.874,8.643,3.932,20.966-4.314,27.384L210.516,264.265z"/>
	</g>
	<g>
		<path fill="none" stroke="#D70983" stroke-width="0.25" stroke-miterlimit="10" d="M219.26,264.281
			c-7.777,6.98-22.456,10.704-32.62,8.276L84.115,248.063c-10.164-2.428-25.707,0.154-34.54,5.738L9.571,279.093
			c-8.833,5.584-23.952,6.866-33.599,2.848l-9.465-3.942c-9.647-4.018-17.736-15.853-17.977-26.3l-1.353-58.74
			c-0.241-10.447,6.572-23.89,15.14-29.874l36.825-25.715c8.568-5.983,21.268-17.26,28.223-25.059l44.104-49.457
			c6.955-7.799,13.755-5.703,15.11,4.659l4.264,32.588c1.355,10.362,11.013,18.996,21.462,19.187l100.934,1.846
			c10.449,0.191,23.428,7.66,28.843,16.597l31.783,52.455c5.416,8.938,3.483,21.961-4.294,28.941L219.26,264.281z"/>
	</g>
	<g>
		<path fill="none" stroke="#D10D86" stroke-width="0.25" stroke-miterlimit="10" d="M230.523,264.293
			c-7.232,7.543-21.502,11.891-31.711,9.66L92.949,250.826c-10.209-2.23-25.577,0.833-34.151,6.807l-42.226,29.422
			c-8.574,5.974-23.131,6.835-32.35,1.914l-13.114-7.001c-9.218-4.921-17.635-17.454-18.704-27.849l-5.88-57.19
			c-1.069-10.395,4.997-23.895,13.479-29.998l40.64-29.245c8.482-6.104,20.742-17.791,27.244-25.972l42.41-53.354
			c6.502-8.181,13.652-6.522,15.889,3.686l7.593,34.657c2.236,10.208,12.616,18.493,23.066,18.411l103.645-0.813
			c10.45-0.082,23.065,7.373,28.034,16.566l30.594,56.601c4.969,9.193,3.117,22.887-4.115,30.43L230.523,264.293z"/>
	</g>
	<g>
		<path fill="none" stroke="#CB1288" stroke-width="0.25" stroke-miterlimit="10" d="M241.644,264.327
			c-6.609,8.095-20.402,13.049-30.651,11.009l-109.22-21.734c-10.249-2.04-25.445,1.461-33.768,7.78l-44.417,33.72
			c-8.323,6.318-22.331,6.874-31.128,1.233l-16.737-10.731c-8.797-5.641-17.555-18.662-19.461-28.937l-10.373-55.889
			c-1.907-10.275,3.41-23.762,11.814-29.973l44.426-32.826c8.404-6.21,20.229-18.265,26.275-26.787l40.724-57.397
			c6.047-8.522,13.479-7.314,16.516,2.685l11.214,36.925c3.037,9.999,14.067,17.898,24.511,17.554l106.381-3.509
			c10.444-0.345,22.703,7.075,27.241,16.489l29.347,60.876c4.538,9.414,2.844,23.738-3.765,31.833L241.644,264.327z"/>
	</g>
	<g>
		<path fill="none" stroke="#C4168A" stroke-width="0.25" stroke-miterlimit="10" d="M252.629,264.413
			c-5.911,8.618-19.161,14.15-29.445,12.295L110.588,256.39c-10.284-1.855-25.312,2.045-33.395,8.668l-46.57,38.162
			c-8.083,6.624-21.57,6.958-29.972,0.744l-20.266-14.99c-8.401-6.214-17.516-19.55-20.254-29.635L-54.758,204.5
			c-2.738-10.085,1.84-23.495,10.174-29.799L3.601,138.25c8.334-6.305,19.73-18.685,25.325-27.511l39.03-61.578
			c5.595-8.826,13.243-8.068,16.997,1.684l15.139,39.331c3.754,9.752,15.361,17.244,25.794,16.647l109.138-6.242
			c10.433-0.597,22.344,6.771,26.468,16.373l28.037,65.266c4.125,9.602,2.663,24.508-3.248,33.126L252.629,264.413z"/>
	</g>
	<g>
		<path fill="none" stroke="#BE1B8C" stroke-width="0.25" stroke-miterlimit="10" d="M263.489,264.581
			c-5.144,9.096-17.792,15.165-28.106,13.486L119.395,259.19c-10.314-1.679-25.179,2.588-33.033,9.481L37.679,311.4
			c-7.854,6.894-20.857,7.072-28.897,0.396l-23.673-19.657c-8.04-6.676-17.519-20.181-21.065-30.011l-19.49-54.026
			c-3.546-9.83,0.318-23.1,8.588-29.489L5.064,138.5c8.27-6.389,19.249-19.056,24.397-28.15l37.31-65.892
			c5.149-9.094,12.954-8.775,17.343,0.708l19.358,41.819c4.39,9.483,16.504,16.556,26.92,15.717l111.916-9.013
			c10.416-0.838,21.99,6.462,25.721,16.224l26.657,69.76c3.73,9.762,2.573,25.191-2.571,34.287L263.489,264.581z"/>
	</g>
	<g>
		<path fill="none" stroke="#B81F8F" stroke-width="0.25" stroke-miterlimit="10" d="M274.25,264.857
			c-4.322,9.514-16.319,16.064-26.66,14.557l-119.396-17.412c-10.341-1.508-25.049,3.095-32.686,10.228l-50.752,47.406
			c-7.637,7.133-20.195,7.201-27.908,0.15l-26.951-24.639c-7.713-7.051-17.555-20.606-21.871-30.124L-56.205,211.6
			c-4.316-9.517-1.13-22.593,7.081-29.057l55.641-43.807c8.21-6.464,18.785-19.384,23.5-28.71l35.55-70.331
			c4.714-9.326,12.622-9.427,17.571-0.224l23.853,44.347c4.95,9.203,17.505,15.856,27.9,14.786L249.6,86.785
			c10.395-1.071,21.646,6.15,25.001,16.046l25.206,74.345c3.355,9.896,2.564,25.778-1.758,35.292L274.25,264.857z"/>
	</g>
	<g>
		<path fill="none" stroke="#B12491" stroke-width="0.25" stroke-miterlimit="10" d="M284.94,265.266
			c-3.462,9.86-14.774,16.828-25.138,15.484l-122.816-15.924c-10.363-1.344-24.922,3.568-32.354,10.915l-52.778,52.18
			c-7.432,7.347-19.582,7.337-27.001-0.022l-30.109-29.863c-7.419-7.359-17.61-20.872-22.647-30.028l-29.15-52.997
			c-5.037-9.156-2.484-21.993,5.673-28.525l59.34-47.528c8.157-6.533,18.342-19.673,22.635-29.2l33.742-74.884
			c4.293-9.527,12.257-10.023,17.699-1.102l28.596,46.881c5.442,8.921,18.378,15.162,28.748,13.869l117.518-14.66
			c10.37-1.293,21.309,5.838,24.31,15.848l23.684,79.008c3,10.01,2.623,26.267-0.84,36.126L284.94,265.266z"/>
	</g>
	<g>
		<path fill="none" stroke="#AB2893" stroke-width="0.25" stroke-miterlimit="10" d="M295.599,265.819
			c-2.585,10.125-13.195,17.44-23.578,16.254L145.772,267.66c-10.383-1.186-24.799,4.012-32.037,11.55l-54.763,57.035
			c-7.237,7.538-19.015,7.475-26.171-0.14l-33.156-35.278c-7.157-7.615-17.674-21.012-23.373-29.772l-34.283-52.7
			c-5.698-8.76-3.728-21.322,4.379-27.917l63.026-51.271c8.106-6.594,17.92-19.926,21.807-29.626L63.08,30
			c3.887-9.7,11.873-10.564,17.745-1.92l33.562,49.4c5.873,8.644,19.138,14.483,29.479,12.976L264.205,72.92
			c10.341-1.507,20.982,5.527,23.647,15.632l22.089,83.739c2.666,10.104,2.73,26.656,0.146,36.781L295.599,265.819z"/>
	</g>
	<g>
		<path fill="none" stroke="#A52C95" stroke-width="0.25" stroke-miterlimit="10" d="M306.264,266.522
			c-1.711,10.309-11.619,17.898-22.018,16.866l-129.692-12.882c-10.398-1.033-24.679,4.43-31.734,12.139l-56.706,61.962
			c-7.055,7.709-18.49,7.61-25.411-0.219L4.599,303.544c-6.921-7.829-17.736-21.058-24.034-29.397l-39.642-52.489
			c-6.298-8.339-4.856-20.604,3.205-27.254l66.698-55.034c8.061-6.651,17.518-20.149,21.017-29.996L61.792,25.08
			c3.499-9.847,11.475-11.051,17.725-2.676l38.721,51.887c6.25,8.375,19.798,13.827,30.107,12.116l123.171-20.443
			c10.309-1.711,20.666,5.22,23.015,15.403l20.425,88.53c2.35,10.183,2.872,26.948,1.161,37.257L306.264,266.522z"/>
	</g>
	<g>
		<path fill="none" stroke="#9E3198" stroke-width="0.25" stroke-miterlimit="10" d="M316.968,267.367
			c-0.858,10.415-10.081,18.21-20.493,17.325L163.33,273.361c-10.413-0.886-24.563,4.822-31.447,12.685l-58.61,66.953
			c-6.883,7.863-18.005,7.741-24.714-0.271L9.595,306.202c-6.709-8.011-17.79-21.035-24.624-28.94l-45.232-52.326
			c-6.834-7.906-5.865-19.858,2.152-26.56l70.356-58.815c8.018-6.702,17.137-20.344,20.265-30.315L60.47,20.119
			c3.128-9.971,11.072-11.487,17.653-3.37l44.049,54.332c6.581,8.117,20.373,13.199,30.647,11.292L278.831,58.99
			c10.274-1.906,20.36,4.917,22.411,15.164l18.693,93.372c2.052,10.247,3.027,27.151,2.168,37.566L316.968,267.367z"/>
	</g>
	<g>
		<path fill="none" stroke="#98359A" stroke-width="0.25" stroke-miterlimit="10" d="M327.743,268.34
			c-0.045,10.45-8.61,18.391-19.033,17.646l-136.608-9.759c-10.423-0.745-24.451,5.193-31.172,13.194l-60.479,71.998
			c-6.721,8.001-17.554,7.866-24.073-0.301L14.63,308.813c-6.519-8.167-17.832-20.961-25.14-28.431l-51.047-52.173
			c-7.308-7.469-6.76-19.103,1.218-25.853l74.005-62.611c7.978-6.75,16.775-20.515,19.55-30.59L59.117,15.12
			c2.775-10.075,10.668-11.876,17.54-4.004l49.522,56.732c6.872,7.872,20.871,12.601,31.109,10.507L286.15,52.002
			c10.238-2.094,20.064,4.62,21.835,14.918l16.898,98.258c1.771,10.299,3.185,27.275,3.14,37.725L327.743,268.34z"/>
	</g>
	<g>
		<path fill="none" stroke="#923A9C" stroke-width="0.25" stroke-miterlimit="10" d="M334.921,269.421
			c0.72,10.425-7.227,18.458-17.659,17.849l-140.078-8.17c-10.432-0.608-24.342,5.543-30.912,13.67L83.96,369.862
			c-6.569,8.127-17.137,7.984-23.483-0.318l-44.464-58.161c-6.347-8.302-17.859-20.853-25.584-27.891l-57.072-52.002
			c-7.725-7.038-7.547-18.354,0.394-25.147l77.643-66.422c7.941-6.793,16.435-20.665,18.875-30.826L54.045,10.09
			c2.44-10.161,10.27-12.223,17.398-4.582l55.121,59.083c7.129,7.641,21.307,12.033,31.506,9.76L289.788,45
			c10.2-2.273,19.778,4.328,21.286,14.668l15.045,103.181c1.508,10.341,3.33,27.331,4.05,37.756L334.921,269.421z"/>
	</g>
	<g>
		<path fill="none" stroke="#8B3E9E" stroke-width="0.25" stroke-miterlimit="10" d="M341.979,270.592
			c1.43,10.352-5.942,18.432-16.382,17.954l-143.557-6.561c-10.439-0.478-24.237,5.875-30.663,14.116l-64.113,82.227
			c-6.426,8.241-16.749,8.095-22.939-0.324l-47.122-64.08c-6.19-8.419-17.873-20.722-25.96-27.339l-63.292-51.791
			c-8.087-6.618-8.236-17.623-0.33-24.457l81.272-70.243c7.906-6.833,16.112-20.796,18.236-31.028L48.719,5.032
			C50.842-5.2,58.598-7.498,65.953-0.075l60.829,61.386c7.355,7.423,21.687,11.496,31.846,9.052l134.578-32.379
			c10.16-2.444,19.503,4.043,20.763,14.417l13.133,108.136c1.261,10.374,3.459,27.331,4.889,37.683L341.979,270.592z"/>
	</g>
	<g>
		<path fill="none" stroke="#8543A1" stroke-width="0.25" stroke-miterlimit="10" d="M349.144,271.83
			c2.079,10.241-4.766,18.333-15.209,17.982l-147.041-4.936c-10.444-0.351-24.136,6.19-30.426,14.534l-65.885,87.4
			c-6.29,8.344-16.386,8.2-22.435-0.321l-49.729-70.053c-6.049-8.521-17.873-20.576-26.275-26.789l-69.685-51.524
			c-8.402-6.213-8.835-16.917-0.961-23.788l84.894-74.076c7.874-6.871,15.808-20.911,17.632-31.201L43.361-0.05
			c1.824-10.29,9.499-12.803,17.056-5.585l66.628,63.64c7.557,7.218,22.019,10.989,32.138,8.38l137.442-35.432
			c10.119-2.609,19.238,3.766,20.265,14.165l11.167,113.117c1.027,10.399,3.567,27.287,5.646,37.528L349.144,271.83z"/>
	</g>
	<g>
		<path fill="none" stroke="#7F47A3" stroke-width="0.25" stroke-miterlimit="10" d="M356.416,273.118
			c2.67,10.103-3.693,18.182-14.141,17.954l-150.531-3.295c-10.448-0.229-24.038,6.489-30.201,14.929l-67.627,92.605
			c-6.163,8.439-16.049,8.298-21.968-0.313l-52.29-76.069c-5.919-8.612-17.861-20.424-26.536-26.25l-76.232-51.191
			c-8.675-5.826-9.356-16.242-1.513-23.147L3.883,140.42c7.843-6.905,15.521-21.012,17.062-31.348L37.973-5.153
			c1.541-10.336,9.131-13.044,16.867-6.019l72.508,65.849c7.736,7.025,22.311,10.51,32.388,7.745l140.312-38.511
			c10.077-2.766,18.983,3.496,19.79,13.915l9.151,118.122c0.807,10.419,3.651,27.209,6.321,37.313L356.416,273.118z"/>
	</g>
	<g>
		<path fill="none" stroke="#784CA5" stroke-width="0.25" stroke-miterlimit="10" d="M363.79,274.439
			c3.205,9.946-2.722,17.994-13.172,17.883l-154.026-1.637c-10.45-0.111-23.943,6.774-29.986,15.3l-69.344,97.84
			c-6.043,8.526-15.733,8.39-21.534-0.302L20.916,321.4c-5.801-8.692-17.838-20.269-26.75-25.728l-82.915-50.788
			c-8.911-5.458-9.808-15.601-1.993-22.538l92.114-81.77c7.815-6.938,15.251-21.1,16.524-31.472L32.557-10.274
			c1.273-10.372,8.776-13.258,16.672-6.413l78.458,68.015c7.896,6.845,22.567,10.059,32.602,7.143L303.47,16.856
			c10.035-2.917,18.736,3.233,19.337,13.666l7.091,123.146c0.601,10.433,3.714,27.107,6.919,37.053L363.79,274.439z"/>
	</g>
	<g>
		<path fill="none" stroke="#7250A7" stroke-width="0.25" stroke-miterlimit="10" d="M371.261,275.782
			c3.688,9.778-1.847,17.78-12.297,17.783l-157.527,0.037c-10.45,0.002-23.851,7.045-29.78,15.65L100.62,412.353
			c-5.929,8.605-15.438,8.476-21.13-0.288l-57.297-88.208C16.5,315.094,4.385,303.742-4.73,298.63l-89.714-50.31
			c-9.115-5.111-10.2-14.994-2.412-21.961l95.716-85.63c7.788-6.967,14.996-21.177,16.018-31.577L27.112-15.41
			c1.021-10.4,8.436-13.447,16.475-6.771l84.467,70.139c8.04,6.676,22.793,9.634,32.785,6.573l146.055-44.74
			c9.992-3.061,18.499,2.979,18.905,13.421l4.983,128.188c0.406,10.442,3.755,26.986,7.44,36.764L371.261,275.782z"/>
	</g>
	<g>
		<path fill="none" stroke="#6C54AA" stroke-width="0.25" stroke-miterlimit="10" d="M378.819,277.137
			c4.12,9.604-1.059,17.553-11.509,17.665l-161.032,1.724c-10.45,0.112-23.762,7.304-29.583,15.982l-72.708,108.385
			c-5.821,8.678-15.16,8.556-20.752-0.271l-59.752-94.32c-5.592-8.828-17.769-19.965-27.06-24.75l-96.615-49.759
			c-9.291-4.785-10.54-14.423-2.777-21.418l99.311-89.496c7.763-6.996,14.755-21.245,15.539-31.666l9.76-129.773
			c0.784-10.42,8.108-13.614,16.277-7.097l90.53,72.225c8.169,6.517,22.992,9.232,32.94,6.033L310.318,2.713
			c9.947-3.199,18.27,2.732,18.491,13.18l2.839,133.244c0.222,10.448,3.774,26.853,7.896,36.457L378.819,277.137z"/>
	</g>
	<g>
		<path fill="none" stroke="#6559AC" stroke-width="0.25" stroke-miterlimit="10" d="M386.458,278.495
			c4.51,9.427-0.349,17.317-10.797,17.535l-164.54,3.426c-10.448,0.218-23.676,7.551-29.396,16.296l-74.357,113.69
			c-5.72,8.746-14.9,8.631-20.4-0.256L24.79,328.734c-5.5-8.886-17.725-19.819-27.167-24.297l-103.604-49.135
			c-9.442-4.478-10.835-13.887-3.096-20.909l102.901-93.367c7.739-7.022,14.528-21.305,15.087-31.74L16.147-25.72
			c0.559-10.435,7.795-13.762,16.081-7.394l96.638,74.275c8.286,6.368,23.168,8.853,33.073,5.521L313.744-4.375
			c9.905-3.332,18.049,2.493,18.099,12.943l0.653,138.311c0.049,10.45,3.779,26.713,8.289,36.14L386.458,278.495z"/>
	</g>
	<g>
		<path fill="none" stroke="#5F5DAE" stroke-width="0.25" stroke-miterlimit="10" d="M394.169,279.851
			c4.859,9.251,0.29,17.082-10.156,17.402l-168.053,5.14c-10.445,0.32-23.592,7.788-29.216,16.595l-75.987,119.014
			c-5.624,8.808-14.655,8.701-20.069-0.237L26.107,331.156c-5.414-8.938-17.677-19.68-27.25-23.87l-110.665-48.441
			c-9.573-4.19-11.092-13.384-3.376-20.431l106.487-97.246c7.716-7.047,14.314-21.358,14.662-31.802L10.63-30.891
			c0.348-10.444,7.497-13.894,15.888-7.666l102.786,76.293c8.391,6.229,23.325,8.495,33.186,5.036l154.679-54.245
			c9.861-3.458,17.836,2.261,17.722,12.711l-1.564,143.387c-0.114,10.45,3.769,26.568,8.628,35.82L394.169,279.851z"/>
	</g>
	<g>
		<path fill="none" stroke="#5962B0" stroke-width="0.25" stroke-miterlimit="10" d="M401.943,281.201
			c5.174,9.079,0.864,16.849-9.577,17.267l-171.568,6.868c-10.442,0.418-23.511,8.013-29.043,16.879l-77.599,124.354
			c-5.532,8.865-14.423,8.767-19.758-0.219L27.437,333.57c-5.335-8.985-17.625-19.545-27.312-23.466l-117.792-47.682
			c-9.687-3.921-11.316-12.914-3.621-19.984l110.067-101.129c7.695-7.07,14.112-21.404,14.259-31.853L5.091-36.069
			c0.147-10.449,7.212-14.01,15.699-7.913l108.968,78.28c8.487,6.097,23.464,8.156,33.281,4.576l157.553-57.453
			c9.817-3.58,17.63,2.038,17.362,12.484l-3.817,148.473c-0.269,10.446,3.745,26.422,8.92,35.501L401.943,281.201z"/>
	</g>
	<g>
		<path fill="none" stroke="#5266B3" stroke-width="0.25" stroke-miterlimit="10" d="M409.775,282.542
			c5.458,8.912,1.384,16.623-9.055,17.136l-175.086,8.607c-10.438,0.513-23.433,8.23-28.878,17.149l-79.194,129.708
			c-5.445,8.919-14.206,8.829-19.466-0.199l-69.32-118.968c-5.261-9.029-17.571-19.418-27.356-23.087l-124.975-46.859
			c-9.785-3.668-11.511-12.473-3.836-19.565l113.645-105.017c7.675-7.092,13.92-21.445,13.878-31.895l-0.6-150.807
			c-0.042-10.45,6.94-14.113,15.514-8.14l115.183,80.24c8.574,5.973,23.587,7.835,33.361,4.139l160.427-60.679
			c9.774-3.697,17.433,1.822,17.019,12.263l-6.101,153.566c-0.414,10.441,3.713,26.276,9.17,35.188L409.775,282.542z"/>
	</g>
	<g>
		<path fill="none" stroke="#4C6BB5" stroke-width="0.25" stroke-miterlimit="10" d="M417.656,283.874
			c5.714,8.75,1.853,16.403-8.58,17.008L230.47,311.241c-10.433,0.605-23.356,8.438-28.719,17.407l-80.773,135.077
			c-5.363,8.97-13.999,8.888-19.191-0.182L30.125,338.375c-5.192-9.069-17.516-19.297-27.386-22.73l-132.204-45.978
			c-9.87-3.433-11.682-12.061-4.026-19.174l117.218-108.91c7.656-7.113,13.739-21.481,13.519-31.928L-6.045-46.446
			C-6.265-56.894,0.636-60.65,9.29-54.793l121.424,82.172c8.654,5.857,23.697,7.532,33.428,3.723l163.3-63.922
			c9.73-3.809,17.239,1.612,16.687,12.048l-8.409,158.665c-0.553,10.435,3.669,26.132,9.384,34.881L417.656,283.874z"/>
	</g>
	<g>
		<path fill="none" stroke="#466FB7" stroke-width="0.25" stroke-miterlimit="10" d="M425.582,285.193
			c5.945,8.594,2.278,16.193-8.148,16.887l-182.128,12.121c-10.427,0.694-23.282,8.638-28.567,17.653L124.4,472.313
			c-5.285,9.015-13.804,8.94-18.932-0.164L31.482,340.768c-5.128-9.105-17.459-19.183-27.404-22.394l-139.474-45.042
			c-9.944-3.211-11.832-11.675-4.195-18.807l120.789-112.808c7.637-7.132,13.567-21.512,13.178-31.955L-11.64-51.642
			c-0.39-10.443,6.433-14.285,15.161-8.538l127.688,84.081c8.728,5.747,23.795,7.245,33.483,3.328l166.173-67.181
			c9.688-3.917,17.055,1.41,16.371,11.837L336.49,135.653c-0.685,10.428,3.62,25.991,9.564,34.585L425.582,285.193z"/>
	</g>
	<g>
		<path fill="none" stroke="#3F74BA" stroke-width="0.25" stroke-miterlimit="10" d="M433.547,286.501
			c6.155,8.445,2.665,15.993-7.756,16.772l-185.655,13.894c-10.42,0.78-23.209,8.83-28.42,17.888l-83.888,145.851
			c-5.21,9.059-13.619,8.993-18.687-0.146L32.846,343.157c-5.067-9.139-17.402-19.075-27.411-22.079l-146.779-44.057
			c-10.009-3.004-11.963-11.313-4.343-18.465l124.355-116.707c7.62-7.151,13.405-21.541,12.856-31.976l-8.775-166.715
			c-0.549-10.436,6.197-14.356,14.993-8.713l133.976,85.967c8.795,5.644,23.883,6.972,33.529,2.951L334.29-47.092
			c9.646-4.021,16.876,1.215,16.067,11.633L337.25,133.416c-0.809,10.418,3.566,25.853,9.721,34.297L433.547,286.501z"/>
	</g>
	<g>
		<path fill="none" stroke="#3978BC" stroke-width="0.25" stroke-miterlimit="10" d="M441.547,287.796
			c6.346,8.303,3.018,15.802-7.396,16.665l-189.182,15.677c-10.414,0.863-23.14,9.014-28.279,18.113l-85.427,151.253
			c-5.139,9.099-13.443,9.041-18.454-0.129L34.216,345.54c-5.011-9.17-17.346-18.972-27.411-21.782l-154.113-43.023
			c-10.065-2.81-12.08-10.975-4.476-18.143L-23.865,141.98c7.604-7.168,13.251-21.565,12.55-31.991L-22.879-62.045
			c-0.701-10.426,5.972-14.42,14.83-8.874l140.282,87.832c8.857,5.546,23.961,6.712,33.565,2.593L337.71-54.24
			c9.604-4.12,16.703,1.026,15.776,11.435l-15.491,173.986c-0.927,10.409,3.507,25.718,9.853,34.021L441.547,287.796z"/>
	</g>
	<g>
		<path fill="none" stroke="#337CBE" stroke-width="0.25" stroke-miterlimit="10" d="M449.579,289.08
			c6.52,8.167,3.338,15.621-7.069,16.564l-192.709,17.471c-10.407,0.943-23.072,9.191-28.143,18.328l-86.953,156.666
			c-5.071,9.137-13.276,9.086-18.234-0.113L35.593,347.919c-4.958-9.199-17.289-18.875-27.403-21.503l-161.474-41.946
			c-10.114-2.627-12.182-10.657-4.594-17.842l131.48-124.52c7.587-7.186,13.104-21.587,12.26-32.003L-28.52-67.251
			c-0.845-10.416,5.758-14.477,14.672-9.023l146.605,89.678c8.915,5.453,24.032,6.466,33.594,2.25l174.78-77.048
			c9.563-4.215,16.536,0.844,15.497,11.242l-17.896,179.101c-1.039,10.398,3.444,25.588,9.964,33.755L449.579,289.08z"/>
	</g>
	<g>
		<path fill="none" stroke="#2C81C0" stroke-width="0.25" stroke-miterlimit="10" d="M457.637,290.352
			c6.679,8.038,3.632,15.45-6.768,16.471l-196.238,19.272c-10.4,1.021-23.005,9.362-28.012,18.535l-88.468,162.085
			c-5.006,9.173-13.118,9.129-18.025-0.097l-83.15-156.323c-4.908-9.226-17.233-18.784-27.391-21.24l-168.857-40.831
			c-10.157-2.457-12.272-10.358-4.7-17.56l135.04-128.43c7.572-7.202,12.965-21.606,11.984-32.01L-34.174-72.46
			c-0.981-10.404,5.553-14.526,14.521-9.161L133.291,9.884c8.968,5.365,24.095,6.231,33.616,1.924l177.646-80.364
			c9.521-4.307,16.374,0.667,15.229,11.054L339.46,126.714c-1.146,10.387,3.38,25.462,10.058,33.5L457.637,290.352z"/>
	</g>
	<g>
		<path fill="none" stroke="#2685C3" stroke-width="0.25" stroke-miterlimit="10" d="M465.72,291.612
			c6.823,7.915,3.903,15.288-6.488,16.385L259.461,329.08c-10.392,1.097-22.94,9.526-27.885,18.732l-89.973,167.514
			c-4.945,9.206-12.967,9.169-17.827-0.082L38.364,352.667c-4.86-9.251-17.178-18.697-27.373-20.993l-176.26-39.677
			c-10.195-2.295-12.353-10.078-4.795-17.294L-31.468,142.36c7.558-7.217,12.833-21.623,11.722-32.014L-39.842-77.671
			c-1.11-10.391,5.358-14.571,14.375-9.289L133.831,6.358c9.017,5.282,24.151,6.007,33.631,1.612l180.509-83.692
			c9.48-4.396,16.218,0.497,14.97,10.872l-22.767,189.334c-1.248,10.375,3.314,25.34,10.139,33.255L465.72,291.612z"/>
	</g>
	<g>
		<path fill="none" stroke="#208AC5" stroke-width="0.25" stroke-miterlimit="10" d="M473.824,292.861
			c6.957,7.798,4.151,15.135-6.232,16.305L264.291,332.07c-10.384,1.17-22.877,9.685-27.763,18.923l-91.467,172.948
			c-4.886,9.237-12.823,9.208-17.638-0.066L39.756,355.037c-4.815-9.274-17.124-18.616-27.352-20.759l-183.679-38.489
			c-10.228-2.143-12.424-9.813-4.88-17.044l142.149-136.258c7.544-7.231,12.707-21.638,11.473-32.015L-45.521-82.883
			c-1.234-10.377,5.172-14.61,14.234-9.407L134.376,2.823c9.063,5.203,24.202,5.794,33.642,1.313l183.371-87.033
			c9.44-4.481,16.064,0.332,14.721,10.695l-25.228,194.453c-1.344,10.363,3.247,25.223,10.204,33.021L473.824,292.861z"/>
	</g>
	<g>
		<path fill="none" stroke="#198EC7" stroke-width="0.25" stroke-miterlimit="10" d="M481.948,294.1
			c7.079,7.687,4.381,14.992-5.995,16.232L269.12,335.063c-10.376,1.241-22.816,9.838-27.646,19.105L148.522,532.56
			c-4.829,9.269-12.685,9.244-17.458-0.053L41.153,357.403c-4.773-9.296-17.071-18.539-27.328-20.539l-191.113-37.27
			c-10.257-2-12.487-9.564-4.957-16.81l145.701-140.177c7.53-7.245,12.586-21.651,11.236-32.014l-25.901-198.69
			c-1.351-10.362,4.994-14.645,14.099-9.517L134.93-0.719c9.105,5.128,24.247,5.591,33.648,1.028l186.229-90.386
			c9.401-4.563,15.917,0.173,14.481,10.523L341.585,120.02c-1.437,10.351,3.18,25.109,10.259,32.796L481.948,294.1z"/>
	</g>
	<g>
		<path fill="none" stroke="#1393C9" stroke-width="0.25" stroke-miterlimit="10" d="M490.09,295.329
			c7.192,7.581,4.594,14.855-5.773,16.165L273.95,338.062c-10.368,1.309-22.757,9.986-27.531,19.281l-94.43,183.838
			c-4.774,9.295-12.554,9.277-17.287-0.039L42.554,359.768c-4.733-9.317-17.019-18.466-27.301-20.331l-198.561-36.021
			c-10.282-1.865-12.544-9.33-5.026-16.588l149.25-144.097c7.518-7.258,12.473-21.663,11.01-32.01L-56.909-93.312
			c-1.462-10.347,4.824-14.676,13.969-9.619L135.485-4.266c9.145,5.057,24.288,5.396,33.65,0.754L358.223-97.26
			c9.362-4.642,15.775,0.019,14.25,10.356l-30.195,204.695c-1.525,10.338,3.11,25,10.303,32.581L490.09,295.329z"/>
	</g>
	<g>
		<path fill="none" stroke="#0D97CC" stroke-width="0.25" stroke-miterlimit="10" d="M498.247,296.549
			c7.296,7.481,4.791,14.728-5.568,16.103l-213.9,28.411c-10.359,1.375-22.699,10.128-27.421,19.451l-95.898,189.29
			c-4.723,9.322-12.429,9.312-17.124-0.024l-94.377-187.65c-4.695-9.336-16.968-18.396-27.272-20.134l-206.019-34.745
			c-10.304-1.738-12.594-9.108-5.088-16.379l152.798-148.02c7.506-7.271,12.363-21.673,10.795-32.004L-62.619-98.527
			c-1.568-10.332,4.661-14.703,13.843-9.714L136.047-7.821c9.182,4.989,24.324,5.21,33.648,0.493l191.943-97.122
			c9.324-4.718,15.637-0.13,14.027,10.195l-32.703,209.816c-1.609,10.325,3.043,24.894,10.34,32.375L498.247,296.549z"/>
	</g>
	<g>
		<path fill="none" stroke="#069CCE" stroke-width="0.25" stroke-miterlimit="10" d="M506.417,297.759
			c7.394,7.386,4.974,14.607-5.376,16.047l-217.435,30.261c-10.351,1.44-22.642,10.267-27.315,19.614l-97.359,194.75
			c-4.673,9.349-12.308,9.343-16.967-0.012l-96.598-193.93c-4.659-9.354-16.918-18.33-27.242-19.947l-213.487-33.444
			c-10.324-1.617-12.64-8.899-5.146-16.182l156.345-151.944c7.494-7.283,12.259-21.682,10.589-31.998l-34.762-214.717
			c-1.67-10.316,4.504-14.727,13.722-9.803L136.613-11.38c9.217,4.924,24.356,5.033,33.643,0.241l194.796-100.506
			c9.287-4.792,15.502-0.274,13.813,10.038L343.64,113.332c-1.689,10.313,2.977,24.792,10.369,32.178L506.417,297.759z"/>
	</g>
	<g>
		<path fill="none" stroke="#00A0D0" stroke-width="0.25" stroke-miterlimit="10" d="M137.186-14.942
			c9.25,4.862,24.386,4.862,33.636,0L368.467-118.84c9.25-4.862,15.372-0.414,13.605,9.886l-37.757,220.061
			c-1.768,10.3,2.909,24.695,10.392,31.989l159.896,155.87c7.482,7.294,5.145,14.493-5.197,15.996l-220.97,32.119
			c-10.341,1.503-22.586,10.4-27.211,19.771l-98.813,200.211c-4.625,9.371-12.193,9.371-16.817,0L46.781,366.851
			c-4.625-9.371-16.87-18.268-27.211-19.771l-220.964-32.119c-10.341-1.503-12.68-8.701-5.197-15.996l159.889-155.869
			c7.483-7.295,12.159-21.69,10.393-31.99l-37.75-220.061c-1.767-10.3,4.355-14.748,13.605-9.886L137.186-14.942z"/>
	</g>
</g>
</svg>
